<svg width="150" height="60" viewBox="0 0 150 60" fill="none" xmlns="http://www.w3.org/2000/svg">
<path d="M45.0755 32.324C45.0755 32.5695 44.873 32.7762 44.6199 32.7762H36.2296C36.4448 34.8948 38.0013 36.8325 40.2033 36.8325C41.7092 36.8325 42.8229 36.2511 43.6581 35.0239C43.7467 34.8948 43.8732 34.8043 44.0251 34.8043C44.2656 34.8043 44.4427 34.9852 44.4427 35.2306C44.4427 35.3211 44.4174 35.3857 44.3794 35.4502C43.5316 36.9488 41.8484 37.6851 40.2033 37.6851C37.3812 37.6851 35.3564 35.1015 35.3564 32.3499C35.3564 29.5854 37.3686 27.0147 40.2033 27.0147C43.0254 27.0147 45.0628 29.5725 45.0755 32.324ZM44.177 31.9236C43.9998 29.805 42.4053 27.8673 40.2033 27.8673C38.0013 27.8673 36.4448 29.805 36.2296 31.9236H44.177ZM55.2628 27.2214C55.503 27.2214 55.6805 27.441 55.6805 27.6477C55.6805 27.8931 55.503 28.074 55.2628 28.074H53.0099V37.1037C53.0099 37.3234 52.8329 37.53 52.5928 37.53C52.3521 37.53 52.1751 37.3105 52.1751 37.1037V28.074H50.0109C49.7702 28.074 49.5932 27.8931 49.5932 27.6477C49.5932 27.428 49.7702 27.2214 50.0109 27.2214H52.1751V23.9272C52.1751 23.7076 52.3395 23.5009 52.5547 23.4751C52.8204 23.4493 53.023 23.643 53.023 23.9014V27.2214H55.2628ZM69.0059 31.5877V37.0521C69.0059 37.2975 68.7908 37.4784 68.5882 37.4784C68.348 37.4784 68.171 37.2975 68.171 37.0521V31.5877C68.171 29.7404 67.1456 27.906 65.1334 27.906C62.5521 27.906 61.4384 30.2054 61.5903 32.5695C61.5903 32.6341 61.6154 32.9053 61.6154 32.9441V37.0392C61.6154 37.2588 61.4509 37.4655 61.2358 37.4913C60.9701 37.5171 60.7675 37.3234 60.7675 37.065V19.0959C60.7675 18.8762 60.945 18.6696 61.1852 18.6696C61.4259 18.6696 61.6029 18.8891 61.6029 19.0959V29.2495C62.3244 27.9319 63.6151 27.0405 65.1209 27.0405C67.6014 27.0405 69.0059 29.2495 69.0059 31.5877ZM84.0782 32.324C84.0782 32.5695 83.8756 32.7762 83.6224 32.7762H75.2321C75.4472 34.8948 77.0041 36.8325 79.2059 36.8325C80.7121 36.8325 81.8253 36.2511 82.6607 35.0239C82.7494 34.8948 82.8758 34.8043 83.0277 34.8043C83.2684 34.8043 83.4454 34.9852 83.4454 35.2306C83.4454 35.3211 83.4198 35.3857 83.3822 35.4502C82.5343 36.9488 80.851 37.6851 79.2059 37.6851C76.3838 37.6851 74.3591 35.1015 74.3591 32.3499C74.3591 29.5854 76.3713 27.0147 79.2059 27.0147C82.0153 27.0147 84.0526 29.5725 84.0782 32.324ZM83.1671 31.9236C82.9896 29.805 81.3951 27.8673 79.1933 27.8673C77.0041 27.8673 75.4347 29.805 75.2195 31.9236H83.1671ZM94.3795 27.6218C94.3795 27.8931 94.2275 28.0481 93.9869 28.0869C91.5193 28.4615 90.4057 30.5155 90.4057 32.9053V37.0004C90.4057 37.22 90.2412 37.4267 90.0261 37.4526C89.7603 37.4784 89.5578 37.2846 89.5578 37.0263V27.6864C89.5578 27.4668 89.7222 27.2601 89.9373 27.2343C90.2031 27.2085 90.4057 27.4022 90.4057 27.6606V29.5595C91.1017 28.3582 92.4811 27.2214 93.9237 27.2214C94.1388 27.2214 94.3795 27.3764 94.3795 27.6218ZM108.186 32.324C108.186 32.5695 107.984 32.7762 107.73 32.7762H99.3401C99.5552 34.8948 101.112 36.8325 103.314 36.8325C104.82 36.8325 105.933 36.2511 106.769 35.0239C106.857 34.8948 106.984 34.8043 107.136 34.8043C107.376 34.8043 107.553 34.9852 107.553 35.2306C107.553 35.3211 107.528 35.3857 107.49 35.4502C106.642 36.9488 104.959 37.6851 103.314 37.6851C100.492 37.6851 98.4671 35.1015 98.4671 32.3499C98.4671 29.5854 100.479 27.0147 103.314 27.0147C106.136 27.0147 108.173 29.5725 108.186 32.324ZM107.287 31.9236C107.11 29.805 105.516 27.8673 103.314 27.8673C101.112 27.8673 99.5552 29.805 99.3401 31.9236H107.287ZM121.752 27.7252V37.1037C121.752 37.3492 121.537 37.53 121.335 37.53C121.094 37.53 120.917 37.3492 120.917 37.1037V35.3211C120.221 36.7291 118.993 37.7497 117.424 37.7497C114.931 37.7497 113.551 35.5407 113.551 33.2025V27.7122C113.551 27.4927 113.729 27.2859 113.969 27.2859C114.21 27.2859 114.387 27.5056 114.387 27.7122V33.2025C114.387 35.0498 115.412 36.8842 117.424 36.8842C120.246 36.8842 120.917 34.1842 120.917 31.2001V27.6993C120.917 27.441 121.183 27.1826 121.486 27.2989C121.638 27.3764 121.752 27.5443 121.752 27.7252ZM143 31.549V37.0392C143 37.2846 142.784 37.4655 142.582 37.4655C142.342 37.4655 142.165 37.2846 142.165 37.0392V31.549C142.165 29.7016 141.139 27.8931 139.127 27.8931C136.596 27.8931 135.635 30.6576 135.635 32.802V37.0392C135.635 37.2846 135.42 37.4655 135.217 37.4655C134.976 37.4655 134.799 37.2846 134.799 37.0392V31.549C134.799 29.7016 133.774 27.8931 131.762 27.8931C129.206 27.8931 128.155 29.9471 128.244 32.6858C128.244 32.7503 128.269 32.8666 128.244 32.9053V37.0263C128.244 37.2458 128.08 37.4526 127.865 37.4784C127.599 37.5043 127.396 37.3105 127.396 37.0521V27.6864C127.396 27.4668 127.561 27.2601 127.776 27.2343C128.042 27.2085 128.244 27.4022 128.244 27.6606V29.2237C128.965 27.906 130.256 27.0405 131.762 27.0405C133.471 27.0405 134.799 28.1515 135.343 29.7663C136.039 28.1644 137.394 27.0405 139.127 27.0405C141.595 27.0405 143 29.2237 143 31.549Z" fill="white"/>
<path opacity="0.6" d="M16.4318 36.4339L26.8763 30.1069L16.4318 25.249L6 30.1069L16.4318 36.4339Z" fill="white"/>
<path opacity="0.45" d="M16.4381 25.4338V12.7482L6 30.2115L16.4381 36.4339V25.4338Z" fill="white"/>
<path opacity="0.8" d="M16.4385 36.4339L26.8766 30.2115L16.4385 12.7482V25.4338V36.4339Z" fill="white"/>
<path opacity="0.45" d="M16.4381 38.1658L6 31.8282L16.4381 46.9608V38.1658Z" fill="white"/>
<path opacity="0.8" d="M26.8766 31.8282L16.4385 38.1658V46.9608L26.8766 31.8282Z" fill="white"/>
</svg>
