<svg width="150" height="60" viewBox="0 0 150 60" fill="none" xmlns="http://www.w3.org/2000/svg">
<mask id="mask0_622_289" style="mask-type:luminance" maskUnits="userSpaceOnUse" x="9" y="16" width="132" height="27">
<path d="M141 16.9198H9.7334V42.4277H141V16.9198Z" fill="white"/>
</mask>
<g mask="url(#mask0_622_289)">
<mask id="mask1_622_289" style="mask-type:luminance" maskUnits="userSpaceOnUse" x="9" y="16" width="133" height="27">
<path d="M141.001 16.9197H9.73438V42.4276H141.001V16.9197Z" fill="white"/>
</mask>
<g mask="url(#mask1_622_289)">
<path d="M30.1523 16.9197L22.1597 21.4905V35.7561L17.7498 38.3015L13.3129 35.7541V30.661L17.7498 28.1381L20.6026 29.7856V25.6649L17.7249 24.038L9.73438 28.6605V37.804L17.7519 42.4016L25.7424 37.804V23.5405L30.1792 20.993L34.6141 23.5405V28.6109L30.1792 31.1812L27.3015 29.5193V33.6193L30.1523 35.2564L38.2216 30.6857V21.4905L30.1523 16.9197Z" fill="white"/>
<path fill-rule="evenodd" clip-rule="evenodd" d="M77.0439 36.7242H80.627V17.1694H77.0439V36.7242ZM54.0116 22.824C55.7099 22.824 57.1177 23.5033 58.2307 24.8596C59.3465 26.216 59.9022 27.8985 59.9022 29.9073C59.9022 31.916 59.3443 33.5986 58.2307 34.955C57.1155 36.3113 55.7099 36.9905 54.0116 36.9905C52.8094 36.9905 51.7642 36.6211 50.8809 35.8799C50.0145 35.1221 49.3779 34.1002 48.9693 32.814V42.0092H45.3867V23.0883H48.9693V26.9984C49.3757 25.7122 50.0145 24.6986 50.8809 23.9595C51.7664 23.2018 52.8094 22.824 54.0116 22.824ZM52.7099 33.739C53.6818 33.739 54.5055 33.3778 55.1771 32.6551C55.8488 31.916 56.1846 30.9994 56.1846 29.9073C56.1846 28.8152 55.8488 27.9337 55.1771 27.2111C54.5055 26.472 53.6818 26.1004 52.7099 26.1004C51.6296 26.1004 50.7381 26.4617 50.0287 27.1842C49.3221 27.9068 48.9671 28.8131 48.9671 29.9052C48.9671 30.9973 49.3221 31.9139 50.0287 32.653C50.7359 33.3757 51.6296 33.7369 52.7099 33.7369V33.739ZM60.8539 29.9073C60.8539 31.916 61.5523 33.5986 62.9497 34.955C64.3472 36.3113 66.0908 36.9905 68.1785 36.9905C70.2662 36.9905 72.0099 36.3113 73.4073 34.955C74.8048 33.5986 75.5038 31.916 75.5038 29.9073C75.5038 27.8985 74.8048 26.216 73.4073 24.8596C72.0099 23.5033 70.2662 22.824 68.1785 22.824C66.0908 22.824 64.3472 23.5033 62.9497 24.8596C61.5523 26.216 60.8539 27.8985 60.8539 29.9073ZM65.6035 32.6551C64.9133 31.916 64.5693 30.9994 64.5693 29.9073C64.5693 28.8152 64.9133 27.9337 65.6035 27.2111C66.2938 26.472 67.1525 26.1004 68.1785 26.1004C69.2046 26.1004 70.0633 26.4617 70.7535 27.1842C71.4438 27.9068 71.7884 28.8131 71.7884 29.9052C71.7884 30.9973 71.4438 31.9139 70.7535 32.653C70.0633 33.3757 69.2046 33.7369 68.1785 33.7369C67.1525 33.7369 66.2938 33.3757 65.6035 32.653V32.6551ZM113.725 34.955C112.328 33.5986 111.629 31.916 111.629 29.9073C111.629 27.8985 112.328 26.216 113.725 24.8596C115.122 23.5033 116.866 22.824 118.954 22.824C121.042 22.824 122.785 23.5033 124.183 24.8596C125.58 26.216 126.279 27.8985 126.279 29.9073C126.279 31.916 125.58 33.5986 124.183 34.955C122.785 36.3113 121.042 36.9905 118.954 36.9905C116.866 36.9905 115.124 36.3113 113.725 34.955ZM115.342 29.9073C115.342 30.9994 115.686 31.916 116.377 32.6551C117.067 33.3778 117.925 33.739 118.952 33.739C119.978 33.739 120.836 33.3778 121.527 32.6551C122.217 31.916 122.561 30.9994 122.561 29.9073C122.561 28.8152 122.217 27.9068 121.527 27.1863C120.836 26.4638 119.978 26.1025 118.952 26.1025C117.925 26.1025 117.067 26.472 116.377 27.2131C115.686 27.9357 115.342 28.8338 115.342 29.9093V29.9073ZM135.814 22.824C137.336 22.824 138.557 23.3526 139.475 24.4096C140.412 25.4666 140.881 26.8147 140.881 28.4518V36.7221H137.299V29.0856C137.299 28.2041 137.016 27.4815 136.448 26.9179C135.883 26.3543 135.175 26.0715 134.325 26.0715C133.369 26.0715 132.592 26.3543 131.99 26.9179C131.389 27.4815 131.089 28.2041 131.089 29.0856V36.7221H127.506V23.0883H131.089V26.5772C131.444 25.415 132.036 24.4983 132.868 23.8294C133.718 23.1605 134.698 22.8261 135.814 22.8261V22.824ZM89.2331 33.0886L92.8944 23.1007H96.531L88.9947 42.0216H85.358L87.2696 37.2114L81.6695 23.1007H85.5445L89.2331 33.0886ZM106.719 23.0883V26.505C105.973 24.2754 104.13 23.0883 101.677 23.0883C97.9739 23.0883 95.7844 26.3089 95.7844 29.6946C95.7844 33.0804 97.9574 36.5653 101.677 36.5653C104.13 36.5653 105.973 34.8043 106.719 32.5746V35.1903C106.719 36.301 106.356 37.2155 105.631 37.9381C104.905 38.6607 104.022 39.022 102.977 39.022C101.561 39.022 100.51 38.318 99.8192 36.908L96.6076 38.5988C97.2092 39.7094 98.0674 40.5971 99.1826 41.2681C100.298 41.937 101.563 42.2715 102.977 42.2715C105.065 42.2715 106.808 41.5943 108.206 40.2359C109.604 38.8795 110.302 37.1969 110.302 35.1882V23.0883H106.719ZM105.685 32.2856C104.994 32.9731 104.128 33.3158 103.085 33.3158C102.042 33.3158 101.227 32.9731 100.537 32.2856C99.846 31.5816 99.502 30.7186 99.502 29.6967C99.502 28.6748 99.846 27.8201 100.537 27.1326C101.227 26.4451 102.075 26.1025 103.085 26.1025C104.094 26.1025 104.997 26.4451 105.685 27.1326C106.375 27.8015 106.719 28.6562 106.719 29.6967C106.719 30.7372 106.375 31.6001 105.685 32.2856Z" fill="white"/>
</g>
</g>
</svg>
