<svg width="150" height="60" viewBox="0 0 150 60" fill="none" xmlns="http://www.w3.org/2000/svg">
<mask id="mask0_622_216" style="mask-type:luminance" maskUnits="userSpaceOnUse" x="19" y="12" width="113" height="36">
<path d="M131.443 12H19V47.0001H131.443V12Z" fill="white"/>
</mask>
<g mask="url(#mask0_622_216)">
<path fill-rule="evenodd" clip-rule="evenodd" d="M58.6143 21.5927H73.4048V20.0371H58.6143V21.5927Z" fill="white"/>
<path fill-rule="evenodd" clip-rule="evenodd" d="M19 12L33.0193 47.0001L52.4403 23.4074L45.4952 16.926L19 12ZM23.8875 14.8519L43.0515 18.3519L35.5916 24.5741L23.8875 14.8519ZM22.6013 16.1482L34.82 26.2593L32.8906 41.9445L22.6013 16.1482ZM45.1092 19L49.2249 22.8889L38.164 24.8334L45.1092 19ZM36.4919 27.0371L48.8391 24.8334L34.6913 41.9445L36.4919 27.0371Z" fill="white"/>
<path fill-rule="evenodd" clip-rule="evenodd" d="M90.5111 28.7222C91.4111 27.8149 91.9253 26.6482 91.9253 25.2223C91.9253 19.9075 87.1668 19.9075 87.1668 19.9075H78.807H77.1348V36.5001H78.807V21.7223H87.0383C87.2952 21.7223 90.2537 21.9815 90.2537 25.3519C90.2537 26.389 89.9963 27.0371 89.4821 27.6852C88.4531 28.7222 86.6525 28.5927 86.6525 28.5927H80.0928V36.7594H81.765V30.2778H86.6525L90.5111 36.7594H92.4401L88.4531 30.0185C88.9674 29.7594 89.8679 29.3704 90.5111 28.7222Z" fill="white"/>
<path fill-rule="evenodd" clip-rule="evenodd" d="M63.8867 36.6298H65.4305V25.2224H63.8867V36.6298Z" fill="white"/>
<path fill-rule="evenodd" clip-rule="evenodd" d="M66.7178 36.6298H68.3894V25.2224H66.7178V36.6298Z" fill="white"/>
<path fill-rule="evenodd" clip-rule="evenodd" d="M119.449 36.5002H121.121V30.5371H119.449V36.5002Z" fill="white"/>
<path fill-rule="evenodd" clip-rule="evenodd" d="M129.74 20.1669V33.5186L116.492 18.3521V36.5002H118.164V23.278L131.412 38.4447V20.1669H129.74Z" fill="white"/>
<path fill-rule="evenodd" clip-rule="evenodd" d="M104.531 35.0741C100.801 35.0741 97.7142 32.0927 97.7142 28.3334C97.7142 24.5742 100.801 21.5926 104.531 21.5926C108.26 21.5926 111.347 24.5742 111.347 28.3334C111.347 31.963 108.26 35.0741 104.531 35.0741ZM104.531 19.9075C99.9006 19.9075 96.042 23.6667 96.042 28.3334C96.042 33.0001 99.7722 36.7594 104.531 36.7594C109.161 36.7594 113.02 33.0001 113.02 28.3334C113.02 23.6667 109.289 19.9075 104.531 19.9075Z" fill="white"/>
<path fill-rule="evenodd" clip-rule="evenodd" d="M104.531 26.9076C103.888 26.9076 103.374 27.4261 103.374 28.0743C103.374 28.7225 103.888 29.2409 104.531 29.2409C105.175 29.2409 105.689 28.7225 105.689 28.0743C105.689 27.4261 105.175 26.9076 104.531 26.9076Z" fill="white"/>
</g>
</svg>
