<svg width="150" height="60" viewBox="0 0 150 60" fill="none" xmlns="http://www.w3.org/2000/svg">
<path d="M19.157 29.1542H8L19.7379 23.7039L25.1712 12.0001L25.184 23.1187C25.1883 26.4504 22.4887 29.1585 19.1527 29.1585L19.157 29.1542Z" fill="white"/>
<path d="M32.4059 29.1541H43.5629L31.825 23.7037L26.3917 12L26.3789 23.1185C26.3746 26.4503 29.0742 29.1584 32.4102 29.1584L32.4059 29.1541Z" fill="white"/>
<path d="M32.4059 30.3928H43.5629L31.825 35.8432L26.3917 47.5469L26.3789 36.4284C26.3746 33.0966 29.0742 30.3885 32.4102 30.3885L32.4059 30.3928Z" fill="white"/>
<path d="M19.157 30.3928H8L19.7379 35.8432L25.1712 47.5469L25.184 36.4284C25.1883 33.0966 22.4887 30.3885 19.1527 30.3885L19.157 30.3928Z" fill="white"/>
<path d="M62.9994 37.5519V41.2168H49.6768V17.9033H53.5082V37.5519H62.9994Z" fill="white"/>
<path d="M65.4932 33.4855V17.9033H69.3246V33.2549C69.3246 35.9843 70.888 37.9193 74.3179 37.9193C77.7479 37.9193 79.3155 35.9886 79.3155 33.2549V17.9033H83.147V33.4898C83.147 38.5173 79.418 41.6482 74.3222 41.6482C69.2264 41.6482 65.4974 38.5173 65.4974 33.4898L65.4932 33.4855Z" fill="white"/>
<path d="M109.79 41.2125H105.958V24.5967L98.8636 36.3175H98.398L91.3032 24.5625V41.2125H87.4717V17.9033H91.6022L98.6287 29.5601L105.689 17.9033H109.786V41.2168L109.79 41.2125Z" fill="white"/>
<path d="M118.156 17.9033V41.2168H114.324V17.9033H118.156Z" fill="white"/>
<path d="M136.976 36.5182H127.053L125.421 41.2125H121.257L129.714 17.899H134.31L142.738 41.2125H138.607L136.976 36.5182ZM135.711 32.9217L132.017 22.3969L128.322 32.9217H135.716H135.711Z" fill="white"/>
</svg>
