<svg width="150" height="60" viewBox="0 0 150 60" fill="none" xmlns="http://www.w3.org/2000/svg">
<mask id="mask0_622_204" style="mask-type:luminance" maskUnits="userSpaceOnUse" x="13" y="17" width="125" height="26">
<path d="M137.238 17H13V43H137.238V17Z" fill="white"/>
</mask>
<g mask="url(#mask0_622_204)">
<path d="M23.4839 29.4406C24.0431 30.4191 22.785 30.6987 22.2259 30.7686C21.3872 30.8384 21.1775 30.3492 21.3173 29.7202C21.3872 29.5105 21.5269 29.3009 21.6667 29.1611C21.8065 29.0212 22.0861 28.8815 22.2958 28.8815C22.5054 28.8815 22.785 28.8815 22.9248 29.0212C23.2044 29.0911 23.3441 29.231 23.4839 29.4406Z" fill="white"/>
<path d="M26.8388 27.6932C26.2098 32.5857 34.7366 31.5373 34.5969 35.3813C35.4356 34.2631 35.7851 31.3276 33.3389 29.79C31.1023 28.3922 28.2366 29.161 26.8388 27.6932Z" fill="white"/>
<path d="M31.8009 25.8064C31.731 25.7365 31.6611 25.7365 31.6611 25.6666C31.6611 25.7365 31.731 25.8064 31.8009 25.8064Z" fill="white"/>
<path d="M33.7585 29.3708C33.6886 29.231 33.6187 29.0912 33.479 28.9514C33.1993 28.5321 32.7801 28.2524 32.2908 28.1826C32.0113 28.1127 31.6618 28.0428 31.3123 28.0428C30.9629 28.0428 30.6832 27.9729 30.3338 27.9729C29.635 27.903 29.0059 27.8331 28.3069 27.6933C28.1672 27.6235 27.9575 27.6235 27.8178 27.5536C27.7478 27.5536 27.6779 27.4837 27.5381 27.4837C27.4682 27.4137 27.3983 27.4137 27.2586 27.3438C26.9091 27.2041 26.6296 26.9245 26.4199 26.7149C25.9306 26.2256 25.5113 25.6665 25.0919 25.1772C24.6726 24.6181 24.3231 24.1288 23.8338 23.6396C23.4145 23.1504 22.8554 22.731 22.2963 22.4514C21.7371 22.1719 21.0382 21.9622 20.4092 21.8923C21.1081 21.8224 21.807 21.8923 22.436 22.1719C23.0651 22.4514 23.6941 22.8009 24.1833 23.2901C24.5328 23.5697 24.8123 23.9192 25.0919 24.2686C27.2586 23.8493 28.9359 24.1987 30.264 24.9676C30.6832 25.1772 31.1026 25.4568 31.4522 25.8063C31.5221 25.8761 31.5919 25.8761 31.5919 25.946C31.8714 26.2256 32.151 26.5051 32.3607 26.7847C33.3392 27.6933 33.7585 28.7417 33.7585 29.3708Z" fill="white"/>
<path d="M20.6177 22.4514C21.1768 22.5213 21.736 22.731 22.0854 23.1503C22.4349 23.5697 22.5747 24.1288 22.7145 24.618C22.7844 25.0374 22.8543 25.4568 22.994 25.8062C23.0639 26.0159 23.2038 26.1557 23.2736 26.2955C23.3435 26.4352 23.4833 26.5751 23.5532 26.7148V26.7847V26.8546C23.3435 27.0643 22.8543 26.8546 22.6446 26.7148C22.2952 26.5751 22.0156 26.2955 21.736 26.0159C20.9672 25.1772 20.5479 23.9192 20.5479 22.8009C20.5479 22.731 20.6177 22.5912 20.6177 22.4514Z" fill="white"/>
<path d="M29.7046 32.2365C28.5165 35.5214 33.8981 37.7579 31.8712 41.1128C33.8981 40.274 34.8765 37.688 34.0379 35.6612C33.339 33.844 31.1024 33.1451 29.7046 32.2365Z" fill="white"/>
<path d="M22.6445 36.5001C22.994 36.2905 23.3434 36.0807 23.6929 35.8711C24.0423 35.7314 24.4617 35.5914 24.8811 35.5216C25.6499 35.3818 26.4886 35.3119 27.1176 35.0323C27.4671 34.8926 27.7466 34.7528 28.0262 34.4733C28.3057 34.2635 28.4455 33.984 28.5854 33.6345C28.7251 33.2851 28.7251 32.9356 28.7251 32.5861C28.7251 32.1668 28.5854 31.8173 28.4455 31.4679C28.7251 31.7474 28.9348 32.1668 29.0745 32.5861C29.2144 33.0055 29.2144 33.4249 29.1445 33.8441C29.0745 34.2635 28.795 34.683 28.5155 35.0323C28.2359 35.3119 27.8165 35.5914 27.3972 35.7314C26.9778 35.8711 26.5585 35.941 26.1391 36.0109C25.7198 36.0109 25.3703 36.0807 24.9509 36.0807C24.1821 36.0807 23.4133 36.2205 22.6445 36.5001Z" fill="white"/>
<path d="M30.1927 42.3011C30.053 42.3709 29.9831 42.5107 29.8433 42.5806C29.7036 42.6504 29.5637 42.7203 29.4239 42.7902C29.1444 42.9301 28.795 43 28.4456 43C27.5369 43 26.9079 42.3011 26.5584 41.5322C26.2788 41.043 26.1391 40.4839 25.8595 39.9946C25.4401 39.2957 24.6714 38.7365 23.8326 38.8064C23.4832 38.8763 23.1337 39.016 22.9939 39.2957C22.5047 40.0644 23.2036 41.1828 24.1821 41.043C24.252 41.043 24.3219 41.043 24.3918 40.973C24.4616 40.973 24.5315 40.9031 24.6014 40.8332C24.7412 40.6935 24.8111 40.5537 24.881 40.414C24.9509 40.2741 24.9509 40.0645 24.9509 39.8548C24.881 39.6451 24.8111 39.5053 24.6714 39.4355C24.881 39.5053 25.0208 39.6451 25.0907 39.8548C25.0208 40.2042 25.0208 40.414 25.0208 40.6236C24.9509 40.8332 24.881 41.043 24.7412 41.1828C24.6713 41.2527 24.6014 41.3225 24.4616 41.3924C24.3918 41.4623 24.252 41.5322 24.1821 41.5322C23.9724 41.602 23.7627 41.602 23.553 41.602C23.2735 41.5322 22.9241 41.4623 22.7143 41.2527C22.4348 41.043 22.2251 40.6935 21.9455 40.4839C21.666 40.1343 21.3165 39.9247 20.8971 39.715C20.6176 39.5752 20.338 39.5053 20.0584 39.4355C19.9187 39.4355 19.7789 39.3656 19.6391 39.3656C19.5692 39.3656 19.2197 39.2957 19.2197 39.2957C19.709 38.8763 20.1982 38.5268 20.6875 38.1774C21.2466 37.8279 21.8057 37.6183 22.4348 37.4086C23.0638 37.1988 23.6928 37.1988 24.3918 37.2687C24.7412 37.3386 25.0208 37.4086 25.3702 37.5484C25.7197 37.6881 25.9993 37.8978 26.2788 38.1075C26.5584 38.387 26.7681 38.6667 26.9079 38.9462C27.0477 39.2258 27.1175 39.5752 27.1874 39.9247C27.3971 40.9031 27.3273 42.4408 28.5853 42.6504C28.6552 42.6504 28.7251 42.6504 28.795 42.6504H29.0047C29.1444 42.6504 29.2842 42.6504 29.4239 42.5806C29.6337 42.5806 29.9132 42.4408 30.1927 42.3011Z" fill="white"/>
<path d="M21.5967 27.4139C21.5269 27.6236 21.4569 27.7634 21.387 27.9032C21.1774 28.1827 20.8978 28.3924 20.6183 28.5322C20.3387 28.672 20.0591 28.7419 19.7097 28.7419C19.6398 28.7419 19.5698 28.7419 19.4999 28.7419C19.2903 28.7419 19.1505 28.8117 18.9408 28.9515C18.8011 29.0913 18.6612 29.2311 18.6612 29.4408C18.6612 29.5107 18.5914 29.6505 18.5914 29.7203C18.5914 29.9999 18.5215 30.2096 18.5215 30.5591C18.4516 31.1182 18.3118 31.6074 18.1021 32.0967C17.8225 32.7257 17.4731 33.2848 17.543 33.9838C17.6129 34.473 17.8225 34.8224 18.172 35.102C18.7311 35.7311 20.0591 36.0106 19.7796 37.4784C19.5698 38.3869 18.1021 39.2956 16.0752 39.645C16.2849 39.645 15.7957 38.8063 15.7957 38.7364C15.586 38.3869 15.3065 38.0375 15.1666 37.688C14.8172 36.9891 14.6774 36.0805 14.8172 35.3117C14.957 34.473 15.586 33.844 16.0752 33.1451C16.7043 32.3762 17.3333 31.3978 17.4731 30.3494C17.4731 30.1397 17.543 29.7902 17.6129 29.5107C17.6828 29.1612 17.7526 28.8816 17.8925 28.5322C17.9624 28.3225 18.1021 28.1828 18.3118 27.973C18.3817 27.9032 18.4516 27.7634 18.4516 27.6935C18.4516 27.5537 18.4516 27.4838 18.3817 27.344L15.0967 21.4032L19.8494 27.2742C19.9193 27.344 19.9892 27.4139 20.0591 27.4139C20.129 27.4838 20.1989 27.4838 20.3387 27.4838C20.4085 27.4838 20.4784 27.4838 20.6183 27.4139C20.6881 27.344 20.758 27.344 20.8279 27.2742C20.8978 27.2042 20.8978 27.1343 20.8978 26.9946C20.8978 26.9247 20.8978 26.7849 20.8279 26.715C20.5484 26.2956 20.1989 25.9462 19.8494 25.5269L18.6612 24.0591L16.2849 21.1237L13 17L16.5645 20.844L19.0806 23.6397L20.3387 25.0376C20.758 25.5269 21.1774 25.9462 21.5967 26.5053L21.6666 26.5752V26.715C21.6666 26.9946 21.6666 27.2042 21.5967 27.4139Z" fill="white"/>
<path d="M22.715 41.1829C22.5053 40.9732 22.2957 40.7634 22.0859 40.5538C22.2957 40.8333 22.4354 41.0431 22.715 41.1829Z" fill="white"/>
<path fill-rule="evenodd" clip-rule="evenodd" d="M84.29 25.387C81.9838 25.9461 80.9349 27.7633 81.5641 29.93C81.8439 30.8385 82.6826 31.817 83.9405 32.5159C86.1074 33.7739 86.8062 34.2633 87.1557 35.032C87.4349 35.661 87.5051 35.8708 87.3652 36.4998C87.0158 37.8976 86.0372 38.5965 84.6394 38.5965C83.2416 38.5965 82.263 37.8278 81.9838 36.4998C81.9136 35.9407 81.7737 35.801 81.5641 35.801C81.2844 35.801 81.2147 35.9407 81.2147 37.2686V38.7364L82.1231 39.0159C83.5911 39.5052 85.618 39.4353 86.8062 38.8762C89.1826 37.7579 90.0911 35.5911 89.0428 33.5643C88.6231 32.7956 87.6445 31.9568 85.9675 30.9084C84.1501 29.7902 83.3815 29.0214 83.2416 28.2525C83.0316 26.9945 84.1501 26.016 85.6877 26.016C86.8759 26.016 87.3652 26.2956 87.7844 27.2042C88.0641 27.7633 88.204 27.973 88.5534 27.973C88.9029 27.973 88.9726 27.9031 88.8327 27.5537C88.763 27.3439 88.6933 26.7848 88.6933 26.3655C88.6933 25.8063 88.6231 25.5267 88.4136 25.4569C87.9242 25.2472 84.9192 25.1773 84.29 25.387ZM38.1611 25.8762C38.1611 26.1558 38.301 26.2257 38.5805 26.2257C39.4193 26.2257 39.4892 26.4353 39.559 31.5375C39.6289 35.9407 39.6988 36.2901 40.0483 36.9891C40.5374 37.8976 41.2365 38.5266 42.2848 39.0159C42.9837 39.3655 43.4729 39.4353 44.9407 39.4353C46.4783 39.4353 46.8278 39.3655 47.6665 38.9461C48.2256 38.6664 48.9248 38.1773 49.204 37.8278C50.1826 36.6396 50.3225 36.0106 50.3922 31.1182C50.5321 26.3655 50.5321 26.2956 51.3006 26.2956C51.5107 26.2956 51.5804 26.1558 51.5804 25.9461C51.5804 25.5966 51.4405 25.5966 49.4838 25.5966C47.5267 25.5966 47.387 25.5966 47.387 25.9461C47.387 26.2257 47.5267 26.2956 47.9461 26.3655C48.8546 26.4353 48.9248 26.7848 48.9248 31.1182C48.9248 35.5213 48.7848 36.3601 47.8062 37.2686C46.9676 38.1073 46.2687 38.3869 45.0805 38.3869C43.403 38.3869 42.145 37.6181 41.7955 36.2202C41.6557 35.7311 41.5859 34.0536 41.6557 31.0482L41.7256 26.5752L42.3546 26.3655C42.7042 26.2257 42.9837 26.016 43.0537 25.8762C43.1235 25.5966 42.8439 25.5966 40.6774 25.5966C38.301 25.5267 38.1611 25.5267 38.1611 25.8762ZM54.4461 25.8762C54.4461 26.1558 54.586 26.2257 54.9354 26.2257C55.8439 26.2257 56.3332 26.5752 56.5428 27.3439C56.6826 27.7633 56.6826 29.7902 56.6826 32.6557C56.6124 37.8278 56.5428 38.1773 55.4944 38.3869C55.145 38.4568 55.0051 38.5965 55.0051 38.8063C55.0051 39.0858 55.145 39.1557 57.4512 39.1557C59.6877 39.1557 59.8978 39.1557 59.8978 38.8762C59.8978 38.6664 59.6877 38.5266 59.1287 38.3869C58.4298 38.1773 58.3602 38.1073 58.1501 37.5483C57.8708 36.7094 57.8708 28.8117 58.0804 28.8816C58.1501 28.8816 58.8495 29.5805 59.618 30.4891C60.3866 31.3977 62.4136 33.7041 64.231 35.5911C67.0265 38.5965 67.5158 39.1557 67.9354 39.1557H68.4242L68.4944 33.0052C68.5641 28.602 68.6343 26.7848 68.7737 26.6451C68.9136 26.5052 69.263 26.3655 69.5428 26.2956C69.8922 26.2257 70.1018 26.0859 70.1018 25.9461C70.1018 25.7365 69.6826 25.6666 67.7254 25.6666C65.4192 25.5966 65.349 25.5966 65.349 25.9461C65.349 26.2257 65.4888 26.2956 65.7686 26.2956C65.9782 26.2956 66.3978 26.5053 66.677 26.7149L67.1664 27.1343L67.236 31.3278C67.236 33.7041 67.236 35.5213 67.1664 35.5213C67.0967 35.5213 66.5372 34.9621 65.9782 34.3331C65.4192 33.7041 63.8113 31.8869 62.4136 30.3493C61.0158 28.8117 59.4782 27.1343 58.9888 26.5752L58.1501 25.5966H56.3332C54.5158 25.5267 54.4461 25.5267 54.4461 25.8762ZM72.7579 25.8762C72.7579 26.1558 72.8978 26.2257 73.2467 26.2257C73.5265 26.2257 73.8759 26.3655 74.0855 26.5052C74.4349 26.7149 74.4349 27.0644 74.5051 31.8869C74.5748 37.8977 74.5051 38.2471 73.4568 38.3869C72.9675 38.4568 72.7579 38.5965 72.7579 38.8063C72.7579 39.0858 72.9675 39.1557 75.4136 39.1557C77.9298 39.1557 78.0697 39.1557 78.0697 38.8063C78.0697 38.5266 77.9298 38.4568 77.6501 38.4568C77.4405 38.4568 77.0911 38.317 76.8815 38.1773C76.5321 37.9675 76.5321 37.6181 76.4619 32.4461C76.3922 27.1343 76.3922 26.9246 76.7416 26.5752C76.9512 26.3655 77.3006 26.2257 77.5102 26.2257C77.8596 26.2257 77.9298 26.1558 77.9298 25.8762C77.9298 25.5267 77.79 25.5267 75.2737 25.5267C72.8973 25.5267 72.7579 25.5267 72.7579 25.8762ZM91.1394 25.8762C91.2091 26.0859 91.349 26.2257 91.6287 26.2257C91.8383 26.2257 92.1877 26.4353 92.3973 26.6451C92.6068 26.8547 93.795 29.7203 95.1231 33.145L97.4293 39.2256L98.0585 39.2954L98.6877 39.3655L100.295 35.032C101.203 32.6558 102.043 30.4891 102.112 30.2794C102.322 29.8601 102.322 29.9299 102.881 31.3278C103.161 32.1666 104 34.2633 104.698 36.0805L105.956 39.3655H106.516C106.795 39.3655 107.075 39.2954 107.144 39.1557C107.215 39.0159 107.983 36.9891 108.962 34.6128C109.87 32.2364 110.919 29.5805 111.268 28.7418C112.037 26.7848 112.177 26.5752 112.736 26.3655C113.016 26.2956 113.225 26.0859 113.225 25.9461C113.225 25.7365 112.876 25.6666 111.129 25.6666C109.171 25.6666 109.032 25.6666 109.032 26.016C109.032 26.2956 109.171 26.3655 109.451 26.3655C110.15 26.3655 110.429 26.5752 110.429 26.9945C110.429 27.3439 107.075 36.3601 106.865 36.5697C106.725 36.7094 103.72 28.3224 103.65 27.4838C103.51 26.7149 103.86 26.3655 104.629 26.3655C104.908 26.3655 105.048 26.2956 105.048 26.016C105.048 25.6666 104.908 25.6666 102.322 25.6666C99.736 25.6666 99.5962 25.6666 99.5962 26.016C99.5962 26.2257 99.736 26.3655 99.8759 26.3655C100.435 26.3655 101.134 26.9246 101.343 27.4139C101.623 28.1826 101.414 28.9515 99.8057 33.145L98.4782 36.7094L98.1984 36.0106C98.0585 35.661 97.2198 33.4246 96.381 31.1182C94.704 26.5752 94.704 26.3655 95.822 26.3655C96.2416 26.3655 96.3113 26.2956 96.3113 26.016C96.3113 25.6666 96.1714 25.6666 93.7254 25.6666C91.0697 25.5267 90.9995 25.5267 91.1394 25.8762ZM126.505 26.016C126.505 26.016 126.505 26.2257 126.505 26.2956C126.505 26.3655 126.714 26.3655 126.714 26.3655C126.854 26.3655 126.924 26.4353 127.064 26.4353C127.623 26.5752 127.973 26.6451 128.112 26.9945C128.182 27.2042 128.252 28.0429 128.252 32.4461C128.252 37.059 128.252 37.6181 128.112 37.8976C127.973 38.2471 127.693 38.4568 126.994 38.6664C126.994 38.6664 126.714 38.7364 126.644 38.8063C126.574 38.8762 126.574 39.0159 126.574 39.0159C126.574 39.0159 126.574 39.1557 126.644 39.2256C126.714 39.2954 126.924 39.2954 126.924 39.2954H128.671H131.607C131.607 39.2954 131.747 39.2954 131.816 39.2256C131.887 39.1557 131.887 39.0159 131.887 39.0159C131.887 39.0159 131.887 38.8762 131.816 38.8063C131.747 38.7364 131.467 38.6664 131.467 38.6664C130.838 38.5266 130.488 38.317 130.348 37.9675C130.209 37.688 130.209 37.059 130.209 35.5911V33.4944C130.279 33.5643 130.348 33.5643 130.419 33.6342C130.768 33.8438 131.188 34.1934 132.725 34.1934C134.612 34.2633 135.73 33.4246 136.429 32.4461C137.128 31.4676 137.338 29.93 136.848 28.2525C136.36 26.6451 134.892 25.5966 132.865 25.5267C131.816 25.4569 130.209 25.5267 129.37 25.5966H129.161C128.392 25.5966 127.414 25.7365 126.924 25.7365C126.784 25.7365 126.784 25.7365 126.714 25.8064C126.505 25.9461 126.505 26.016 126.505 26.016ZM134.262 32.4461C135.032 31.7471 135.032 30.6289 135.032 29.8601C134.961 28.7418 134.473 26.5752 131.956 26.5752C131.327 26.5752 130.139 26.6451 130.069 27.4838C130 27.6235 130 28.6719 130 30.2096V32.7257L130.279 32.8655C130.419 32.9353 130.628 33.0052 130.908 33.0751C131.956 33.3547 133.494 33.145 134.262 32.4461ZM118.188 25.7365C118.397 25.6666 118.537 25.5966 118.537 25.5966C118.537 25.5966 118.816 25.4569 118.887 25.5966C118.887 25.6666 119.026 25.8762 119.306 26.5752C119.375 26.7149 119.446 26.8547 119.446 26.9945C119.795 27.973 120.354 29.3708 120.634 30.1396C120.914 30.9084 121.473 32.3063 121.892 33.4246C122.311 34.4729 122.801 35.801 123.08 36.4299C123.289 37.059 123.639 37.6181 123.709 37.7579C123.779 37.8278 123.779 37.8976 123.849 37.9675C124.059 38.2471 124.268 38.6664 124.757 38.7364C124.757 38.7364 125.107 38.8063 125.177 38.8762C125.247 38.9461 125.247 39.0159 125.247 39.0159V39.2256C125.247 39.2256 125.247 39.2954 125.177 39.2954C125.177 39.3655 125.037 39.2954 125.037 39.2954H122.102H120.005C120.005 39.2954 119.935 39.2954 119.865 39.2954C119.795 39.2954 119.795 39.1557 119.795 39.1557V39.0159C119.795 39.0159 119.795 38.8762 119.865 38.8063C119.935 38.7364 120.284 38.6664 120.284 38.6664C120.914 38.5965 121.193 38.1073 121.262 37.8278V37.7579C121.402 37.4782 121.333 37.2686 120.703 35.801C120.284 34.8224 120.144 34.5429 120.075 34.4729C120.005 34.4729 118.887 34.4729 117.698 34.4729H115.392L115.252 34.8224C114.833 35.9407 114.483 36.9891 114.483 37.2686C114.343 37.8278 114.553 38.5266 115.392 38.6664C115.392 38.6664 115.741 38.7364 115.811 38.8063C115.881 38.8762 115.951 39.0159 115.951 39.0159V39.1557C115.951 39.1557 115.951 39.2256 115.881 39.2954C115.811 39.3655 115.671 39.2954 115.671 39.2954H113.505H111.408C111.408 39.2954 111.338 39.2954 111.268 39.2256C111.198 39.1557 111.198 39.0858 111.198 39.0858V38.9461C111.198 38.9461 111.198 38.8762 111.338 38.7364C111.478 38.5965 111.757 38.5965 111.757 38.5965C112.316 38.5266 112.666 37.8976 112.876 37.5483C112.876 37.5483 112.876 37.4782 112.946 37.4782C113.015 37.3385 113.365 36.5697 113.715 35.7311C114.064 34.8923 114.414 33.9139 114.553 33.6342C114.973 32.5858 115.392 31.6074 116.021 30.0697C116.37 29.231 116.86 27.973 117.139 27.2741L117.629 26.016L118.188 25.7365ZM118.048 28.7418C118.188 29.0214 118.328 29.4407 118.397 29.6504C118.467 29.8601 118.747 30.4891 118.956 31.0482C119.166 31.6074 119.446 32.2364 119.585 32.5159C119.725 32.7956 119.795 33.0052 119.795 33.0052C119.795 33.0052 118.956 33.0052 117.908 33.0052C116.72 33.0052 116.021 33.0052 116.021 32.9353C116.021 32.9353 116.091 32.7956 116.091 32.6557C116.161 32.4461 116.58 31.3278 117.419 28.9515C117.559 28.602 117.698 28.2525 117.698 28.1826C117.768 28.1826 117.838 28.2525 118.048 28.7418Z" fill="white"/>
</g>
</svg>
