<svg width="150" height="60" viewBox="0 0 150 60" fill="none" xmlns="http://www.w3.org/2000/svg">
<path fill-rule="evenodd" clip-rule="evenodd" d="M72.8189 22.9761L74.038 26.2754H76.8232L71.3348 12.1068H68.8139L63.3457 26.2754H66.1108L67.3298 22.9761H72.8189ZM72.0055 20.7092H68.1842L70.0949 15.5275L72.0055 20.7092Z" fill="white"/>
<path fill-rule="evenodd" clip-rule="evenodd" d="M78.2002 16.0738V30.4043H80.6807V25.1619C81.2498 25.9514 82.3471 26.4371 83.587 26.4371C86.5956 26.4371 88.5271 24.2917 88.5271 21.1745C88.5271 18.0574 86.7174 15.9119 83.77 15.9119C82.4083 15.9119 81.2902 16.4786 80.6807 17.3489V16.0738H78.2002ZM86.0467 21.1745C86.0467 23.0569 84.9494 24.2917 83.3024 24.2917C81.6152 24.2917 80.5179 23.0569 80.5179 21.1745C80.5179 19.2921 81.6152 18.0574 83.3024 18.0574C84.9494 18.0574 86.0467 19.2921 86.0467 21.1745Z" fill="white"/>
<path fill-rule="evenodd" clip-rule="evenodd" d="M99.6999 22.8748H97.2605C96.9961 23.8463 96.1625 24.3725 94.8822 24.3725C93.2965 24.3725 92.2396 23.32 92.0566 21.6805H99.6185C99.6387 21.4782 99.6589 21.1745 99.6589 20.8304C99.6589 18.4015 98.1142 15.9119 94.6791 15.9119C91.3247 15.9119 89.6582 18.442 89.6582 21.134C89.6582 23.8058 91.5285 26.4371 94.8822 26.4371C97.4031 26.4371 99.3137 25.0405 99.6999 22.8748ZM92.1178 20.041C92.3816 18.5027 93.2763 17.774 94.6791 17.774C96.1625 17.774 97.0573 18.7456 97.1589 20.041H92.1178Z" fill="white"/>
<path d="M67.716 35.0376V46.8987H70.399V35.0376H74.6879V32.7301H63.4062V35.0376H67.716Z" fill="white"/>
<path fill-rule="evenodd" clip-rule="evenodd" d="M83.6208 43.4981H81.182C80.9176 44.4696 80.0841 44.996 78.8038 44.996C77.2181 44.996 76.1612 43.9433 75.9782 42.3039H83.5401C83.5602 42.1014 83.5804 41.7978 83.5804 41.4537C83.5804 39.0249 82.0358 36.5352 78.6 36.5352C75.2462 36.5352 73.5791 39.0653 73.5791 41.7573C73.5791 44.4292 75.4494 47.0605 78.8038 47.0605C81.324 47.0605 83.2346 45.6639 83.6208 43.4981ZM76.0387 40.6643C76.3031 39.1261 77.1979 38.3974 78.6 38.3974C80.0841 38.3974 80.9789 39.3689 81.0804 40.6643H76.0387Z" fill="white"/>
<path d="M90.0198 38.7819H91.6257V36.6971H90.4261C89.1048 36.6971 88.3123 37.2032 87.8044 38.4986V36.6971H85.3037V46.8986H87.8044V42.0812C87.8044 40.1382 88.4341 38.7819 90.0198 38.7819Z" fill="white"/>
<path d="M93.0654 36.6971V46.8986H95.5661V41.049C95.5661 39.6119 96.399 38.6606 97.7203 38.6606C98.9198 38.6606 99.672 39.6119 99.672 41.049V46.8986H102.152V41.049C102.152 39.6119 102.985 38.6606 104.327 38.6606C105.526 38.6606 106.279 39.6119 106.279 41.049V46.8986H108.758V40.3C108.758 38.1342 107.335 36.5352 105.12 36.5352C103.493 36.5352 102.193 37.4258 101.725 38.4783C101.278 37.2234 100.16 36.5352 98.5337 36.5352C97.0906 36.5352 96.074 37.2639 95.5661 38.2961V36.6971H93.0654Z" fill="white"/>
<path d="M113.573 32.3256H110.89V35.0985H113.573V32.3256Z" fill="white"/>
<path d="M110.991 36.6971V46.8986H113.491V36.6971H110.991Z" fill="white"/>
<path d="M115.735 36.6971V46.8986H118.236V41.3323C118.236 39.8345 119.212 38.7414 120.614 38.7414C121.895 38.7414 122.748 39.713 122.748 41.1097V46.8986H125.249V40.5834C125.249 38.195 123.745 36.5352 121.427 36.5352C119.963 36.5352 118.805 37.1627 118.236 38.2759V36.6971H115.735Z" fill="white"/>
<path fill-rule="evenodd" clip-rule="evenodd" d="M127.081 41.7978C127.081 44.9149 128.87 47.0605 131.959 47.0605C133.24 47.0605 134.419 46.514 134.907 45.7043V46.8986H137.407V36.6971H134.907V37.8509C134.318 37.0615 133.199 36.5352 131.92 36.5352C128.87 36.5352 127.081 38.6808 127.081 41.7978ZM135.091 41.7978C135.091 43.6802 133.993 44.9149 132.306 44.9149C130.658 44.9149 129.561 43.6802 129.561 41.7978C129.561 39.9155 130.658 38.6808 132.306 38.6808C133.993 38.6808 135.091 39.9155 135.091 41.7978Z" fill="white"/>
<path d="M139.938 32.3256V46.899H142.417V32.3256H139.938Z" fill="white"/>
<path fill-rule="evenodd" clip-rule="evenodd" d="M30.7594 27.983H20.7734L22.1212 24.0527L32.1067 24.0538L30.7594 27.983Z" fill="black"/>
<path fill-rule="evenodd" clip-rule="evenodd" d="M19.334 32.1751H29.3199L30.7575 27.9828H20.7716L19.334 32.1751Z" fill="black"/>
<path fill-rule="evenodd" clip-rule="evenodd" d="M29.319 32.1753L27.9713 36.1055H17.9854L19.3331 32.1753H29.319Z" fill="black"/>
<path d="M13.8545 48.1582H23.8404L27.9735 36.1055H17.9876L13.8545 48.1582Z" fill="white"/>
<path d="M8 36.1054H17.9859L22.1191 24.0527H12.1331L8 36.1054Z" fill="white"/>
<path d="M32.1066 24.0538L22.1211 24.0527L26.2542 12H37.959L50.3583 48.158H40.3725L36.2393 36.1054H27.9738L32.1066 24.0538Z" fill="white"/>
</svg>
