<svg width="150" height="60" viewBox="0 0 150 60" fill="none" xmlns="http://www.w3.org/2000/svg">
<path d="M72.581 29.334C71.7932 28.9688 70.7869 28.7838 69.5926 28.7838H66.1941C65.2887 28.7838 64.5647 28.5425 64.0473 28.0776L64.0221 28.0535C63.5165 27.5435 63.2728 26.9692 63.2728 26.2984C63.2728 25.6276 63.5248 25.0083 64.0221 24.5063C64.5227 23.9963 65.2098 23.7389 66.0564 23.7389H74.4188V22H65.7456C64.8032 22 63.9935 22.2091 63.2695 22.6354C62.5455 23.0408 61.9979 23.5636 61.598 24.2296C61.1982 24.8972 61 25.6034 61 26.3949C61 27.3231 61.2066 28.1098 61.6181 28.7371C62.06 29.3758 62.6463 29.8536 63.4073 30.2026C64.1984 30.5244 65.1375 30.6885 66.1941 30.6885H69.7689C70.3703 30.6885 70.9062 30.8204 71.3597 31.0826C71.8234 31.3191 72.1678 31.6569 72.3962 32.0864C72.6197 32.4886 72.7238 32.8972 72.7238 33.3766C72.7238 33.856 72.6011 34.337 72.3576 34.7746C72.114 35.2169 71.7394 35.5853 71.2506 35.8749C70.792 36.1355 70.2309 36.2642 69.5959 36.2642H61.5493V38H69.9789C70.9885 38 71.8402 37.7828 72.5843 37.3372C73.3588 36.8868 73.94 36.3253 74.365 35.6095C74.795 34.8743 75 34.1118 75 33.2752C75 32.3036 74.785 31.472 74.3684 30.8123C73.977 30.1625 73.3907 29.675 72.5827 29.3308L72.5776 29.334H72.581Z" fill="#F5F5F5"/>
<path d="M91.1191 22.1426C89.938 21.3857 88.5507 21 86.9999 21C85.449 21 84.0651 21.3857 82.8759 22.1459C81.6899 22.8816 80.7381 23.9104 80.0447 25.2028C79.3513 26.4675 79 27.9145 79 29.5C79 31.0854 79.3513 32.5487 80.0447 33.833C80.7381 35.101 81.6915 36.1297 82.8759 36.8899C84.0072 37.5979 85.3305 37.9706 86.8026 38H86.9999C88.5507 38.0032 89.9346 37.6337 91.1191 36.8948C92.3279 36.1346 93.2801 35.1058 93.9549 33.8428C94.6485 32.5536 95 31.0952 95 29.5065C95 27.9178 94.6485 26.4333 93.9549 25.1686C93.2801 23.9038 92.3279 22.8881 91.1191 22.1492V22.1443V22.1426ZM92.9077 29.5048C92.9077 30.7566 92.6599 31.9073 92.1683 32.928C91.6774 33.9323 90.9838 34.7412 90.111 35.3386C89.241 35.9327 88.1629 36.2453 86.9972 36.2453C85.8308 36.2453 84.7857 35.9409 83.8826 35.3386C83.0099 34.7412 82.3165 33.929 81.8207 32.9247C81.3326 31.909 81.0817 30.7582 81.0817 29.5065C81.0817 28.2548 81.3296 27.117 81.8207 26.1208C82.3119 25.0921 83.0099 24.2668 83.8874 23.6695C84.7857 23.0672 85.8349 22.7677 86.9972 22.7677C88.1588 22.7677 89.2262 23.0721 90.111 23.6744C90.9885 24.2766 91.6821 25.097 92.173 26.1175C92.6612 27.117 92.9118 28.2548 92.9118 29.5081H92.9077V29.5048Z" fill="#F5F5F5"/>
<path d="M110.39 21.937C109.28 21.3168 107.974 21 106.499 21C105.024 21 103.734 21.3168 102.6 21.9454C101.463 22.5489 100.592 23.3826 99.9399 24.4813C99.3162 25.5718 99 26.8673 99 28.3329V38H101.187V28.3662C101.187 27.2341 101.434 26.2387 101.92 25.4134C102.422 24.573 103.086 23.9195 103.892 23.4643C104.71 23.0191 105.585 22.7941 106.499 22.7941C107.413 22.7941 108.28 23.0191 109.074 23.4643C109.896 23.9145 110.56 24.5681 111.049 25.4167C111.555 26.2404 111.81 27.2275 111.81 28.3596V37.9934H114V28.3262C114 26.8657 113.672 25.5651 113.028 24.4747C112.396 23.371 111.534 22.5423 110.392 21.9304L110.388 21.9354L110.39 21.937Z" fill="#F5F5F5"/>
<path d="M122 22H120V38H122V22Z" fill="#F5F5F5"/>
<path d="M131.188 24.5938C132.136 24.0277 133.209 23.7383 134.387 23.7383H136V22H134.486C132.861 22 131.389 22.3618 130.123 23.0725C128.857 23.7801 127.841 24.7546 127.102 25.9638C126.37 27.1441 126 28.5013 126 30C126 31.4987 126.37 32.8623 127.102 34.0683C127.838 35.2567 128.857 36.2167 130.123 36.9274C131.232 37.5449 133.404 38 134.376 38H136V36.2617H134.387C133.214 36.2617 132.136 35.9851 131.186 35.4384C130.264 34.8723 129.514 34.1053 128.958 33.1614C128.428 32.2142 128.157 31.1497 128.157 29.9968C128.157 28.8438 128.428 27.7761 128.963 26.829C129.514 25.8899 130.265 25.1341 131.19 24.5922V24.597L131.188 24.5938Z" fill="#F5F5F5"/>
<path d="M37.996 35.0036C30.396 37.0418 24.1091 40.0147 20.1737 43.498L20 43.6526C21.0464 44.5369 22.1939 45.3278 23.4343 46L23.701 45.7088C24.7758 44.5369 25.9273 43.4046 27.1272 42.3369C30.3475 39.4719 34.0323 36.9915 38 35L37.996 35.0036Z" fill="url(#paint0_radial_1222_96)"/>
<path d="M37.996 35.0036C30.396 37.0418 24.1091 40.0147 20.1737 43.498L20 43.6526C21.0464 44.5369 22.1939 45.3278 23.4343 46L23.701 45.7088C24.7758 44.5369 25.9273 43.4046 27.1272 42.3369C30.3475 39.4719 34.0323 36.9915 38 35L37.996 35.0036Z" fill="#F5F5F5"/>
<path d="M14 32C14.302 35.7556 15.8081 39.1991 18.172 42L18.2808 41.8997C20.7091 39.682 23.8703 37.6649 27.6839 35.9079C31.0264 34.3663 34.8642 33.0438 39 32H14Z" fill="url(#paint1_radial_1222_96)"/>
<path d="M14 32C14.302 35.7556 15.8081 39.1991 18.172 42L18.2808 41.8997C20.7091 39.682 23.8703 37.6649 27.6839 35.9079C31.0264 34.3663 34.8642 33.0438 39 32H14Z" fill="#F5F5F5"/>
<path d="M29.0912 14.6677C35.9366 21.1174 44.5514 25.3828 54 27C52.8611 17.4384 44.2545 10 33.7972 10C31.0354 10 28.4038 10.5212 26 11.4601C26.9762 12.5715 28.0174 13.6522 29.0912 14.6677Z" fill="url(#paint2_radial_1222_96)"/>
<path d="M29.0912 14.6677C35.9366 21.1174 44.5514 25.3828 54 27C52.8611 17.4384 44.2545 10 33.7972 10C31.0354 10 28.4038 10.5212 26 11.4601C26.9762 12.5715 28.0174 13.6522 29.0912 14.6677Z" fill="#F5F5F5"/>
<path d="M20.1738 15.7294C24.11 19.5333 30.3983 22.7726 38 25C34.0314 22.8235 30.3458 20.1216 27.1248 16.9961C25.9286 15.8353 24.7768 14.6 23.6978 13.3176L23.4311 13C22.1904 13.7333 21.0426 14.5961 20 15.5608L20.1738 15.7294Z" fill="url(#paint3_radial_1222_96)"/>
<path d="M20.1738 15.7294C24.11 19.5333 30.3983 22.7726 38 25C34.0314 22.8235 30.3458 20.1216 27.1248 16.9961C25.9286 15.8353 24.7768 14.6 23.6978 13.3176L23.4311 13C22.1904 13.7333 21.0426 14.5961 20 15.5608L20.1738 15.7294Z" fill="#F5F5F5"/>
<path d="M29.0908 44.3333C28.0131 45.3487 26.972 46.4291 26 47.5402C28.3994 48.4789 31.0347 49 33.7961 49C44.2518 49 52.8572 41.5632 54 32C44.5528 33.6169 35.9393 37.8812 29.0948 44.3295L29.0908 44.3333Z" fill="url(#paint4_radial_1222_96)"/>
<path d="M29.0908 44.3333C28.0131 45.3487 26.972 46.4291 26 47.5402C28.3994 48.4789 31.0347 49 33.7961 49C44.2518 49 52.8572 41.5632 54 32C44.5528 33.6169 35.9393 37.8812 29.0948 44.3295L29.0908 44.3333Z" fill="#F5F5F5"/>
<path d="M27.6861 24.0921C23.8719 22.3351 20.7101 20.318 18.2815 18.1003L18.1727 18C15.8084 20.8009 14.3021 24.2444 14 28H39C34.8635 26.9562 31.0292 25.6337 27.6821 24.0884L27.6861 24.0921Z" fill="url(#paint5_radial_1222_96)"/>
<path d="M27.6861 24.0921C23.8719 22.3351 20.7101 20.318 18.2815 18.1003L18.1727 18C15.8084 20.8009 14.3021 24.2444 14 28H39C34.8635 26.9562 31.0292 25.6337 27.6821 24.0884L27.6861 24.0921Z" fill="#F5F5F5"/>
<defs>
<radialGradient id="paint0_radial_1222_96" cx="0" cy="0" r="1" gradientUnits="userSpaceOnUse" gradientTransform="translate(33.8929 30.6431) rotate(90) scale(17.9739 20.107)">
<stop stop-color="#1C294B"/>
<stop offset="0.317213" stop-color="#FF4433"/>
<stop offset="0.597213" stop-color="#FE9A4C"/>
<stop offset="1" stop-color="#E0E0E0"/>
</radialGradient>
<radialGradient id="paint1_radial_1222_96" cx="0" cy="0" r="1" gradientUnits="userSpaceOnUse" gradientTransform="translate(34.0407 30.6144) rotate(90) scale(18.5736 20.0407)">
<stop stop-color="#1C294B"/>
<stop offset="0.317213" stop-color="#FF4433"/>
<stop offset="0.597213" stop-color="#FE9A4C"/>
<stop offset="1" stop-color="#E0E0E0"/>
</radialGradient>
<radialGradient id="paint2_radial_1222_96" cx="0" cy="0" r="1" gradientUnits="userSpaceOnUse" gradientTransform="translate(33.7627 29.1614) rotate(90) scale(19.1614 20.2414)">
<stop stop-color="#1C294B"/>
<stop offset="0.317213" stop-color="#FF4433"/>
<stop offset="0.597213" stop-color="#FE9A4C"/>
<stop offset="1" stop-color="#E0E0E0"/>
</radialGradient>
<radialGradient id="paint3_radial_1222_96" cx="0" cy="0" r="1" gradientUnits="userSpaceOnUse" gradientTransform="translate(33.896 29.7529) rotate(90) scale(19.6078 20.1115)">
<stop stop-color="#1C294B"/>
<stop offset="0.317213" stop-color="#FF4433"/>
<stop offset="0.597213" stop-color="#FE9A4C"/>
<stop offset="1" stop-color="#E0E0E0"/>
</radialGradient>
<radialGradient id="paint4_radial_1222_96" cx="0" cy="0" r="1" gradientUnits="userSpaceOnUse" gradientTransform="translate(33.7615 29.8429) rotate(90) scale(19.1571 20.2385)">
<stop stop-color="#1C294B"/>
<stop offset="0.317213" stop-color="#FF4433"/>
<stop offset="0.597213" stop-color="#FE9A4C"/>
<stop offset="1" stop-color="#E0E0E0"/>
</radialGradient>
<radialGradient id="paint5_radial_1222_96" cx="0" cy="0" r="1" gradientUnits="userSpaceOnUse" gradientTransform="translate(34.0439 29.3856) rotate(90) scale(18.5736 20.0439)">
<stop stop-color="#1C294B"/>
<stop offset="0.317213" stop-color="#FF4433"/>
<stop offset="0.597213" stop-color="#FE9A4C"/>
<stop offset="1" stop-color="#E0E0E0"/>
</radialGradient>
</defs>
</svg>
