<svg width="150" height="60" viewBox="0 0 150 60" fill="none" xmlns="http://www.w3.org/2000/svg">
<mask id="mask0_622_314" style="mask-type:luminance" maskUnits="userSpaceOnUse" x="4" y="17" width="142" height="26">
<path d="M146 17.0551H4.00098V42.022H146V17.0551Z" fill="white"/>
</mask>
<g mask="url(#mask0_622_314)">
<path d="M8.15101 20.8793L14.7522 17.0551L21.3534 20.8793L18.9265 22.292L14.7522 19.8806L10.5779 22.292L8.15101 20.8793ZM21.3534 25.7021L18.9265 24.2894L14.7522 26.7008L10.5779 24.2894L8.15101 25.7021V28.5277L12.3253 30.939V35.7619L14.7522 37.1747L17.1791 35.7619V30.939L21.3534 28.5277V25.7021ZM21.3534 33.3506V30.525L18.9265 31.9377V34.7632L21.3534 33.3506ZM23.0764 34.3492L18.9022 36.7606V39.5861L25.5034 35.7619V28.1135L23.0764 29.5264V34.3492ZM20.6496 23.2907L23.0764 24.7035V27.529L25.5034 26.1162V23.2907L23.0764 21.8779L20.6496 23.2907ZM12.3253 37.7837V40.6092L14.7522 42.022L17.1791 40.6092V37.7837L14.7522 39.1964L12.3253 37.7837ZM8.15101 33.3506L10.5779 34.7632V31.9377L8.15101 30.525V33.3506ZM12.3253 23.2907L14.7522 24.7035L17.1791 23.2907L14.7522 21.8779L12.3253 23.2907ZM6.42785 24.7035L8.85478 23.2907L6.42785 21.8779L4.00098 23.2907V26.1162L6.42785 27.529V24.7035ZM6.42785 29.5264L4.00098 28.1135V35.7619L10.6021 39.5861V36.7606L6.42785 34.3492V29.5264Z" fill="white"/>
<path d="M44.6356 32.7234V32.6836C44.6356 30.8178 43.6467 29.8849 42.0449 29.2695C43.0337 28.7138 43.8643 27.8404 43.8643 26.2723V26.2326C43.8643 24.0491 42.1239 22.6398 39.2958 22.6398H32.8682V36.5346H39.454C42.5788 36.5346 44.6356 35.2642 44.6356 32.7234ZM40.8384 26.7883C40.8384 27.8205 39.9881 28.2573 38.6432 28.2573H35.8348V25.3195H38.841C40.1264 25.3195 40.8384 25.8356 40.8384 26.7486V26.7883ZM41.6097 32.3463C41.6097 33.3785 40.7989 33.8548 39.454 33.8548H35.8348V30.7981H39.3552C40.9176 30.7981 41.6097 31.3737 41.6097 32.3066V32.3463Z" fill="white"/>
<path d="M59.6403 36.5346V22.6398H56.6343V31.195L50.1471 22.6398H47.3389V36.5346H50.3448V27.7014L57.0494 36.5346H59.6403Z" fill="white"/>
<path d="M74.9295 32.7234V32.6836C74.9295 30.8178 73.9409 29.8849 72.3391 29.2695C73.3276 28.7138 74.1583 27.8404 74.1583 26.2723V26.2326C74.1583 24.0491 72.4177 22.6398 69.5898 22.6398H63.1621V36.5346H69.7481C72.8727 36.5346 74.9295 35.2642 74.9295 32.7234ZM71.1326 26.7883C71.1326 27.8205 70.2823 28.2573 68.9371 28.2573H66.1288V25.3195H69.1348C70.4204 25.3195 71.1326 25.8356 71.1326 26.7486V26.7883ZM71.9038 32.3463C71.9038 33.3785 71.0928 33.8548 69.7481 33.8548H66.1288V30.7981H69.6493C71.2118 30.7981 71.9038 31.3737 71.9038 32.3066V32.3463Z" fill="white"/>
<path d="M93.2855 34.08L91.723 32.4921C90.5362 33.6036 89.4488 34.2983 87.7475 34.2983C85.0976 34.2983 83.179 32.0752 83.179 29.3359C83.179 26.5967 85.0976 24.4132 87.7475 24.4132C89.3297 24.4132 90.5165 25.108 91.6241 26.1401L93.1867 24.3338C91.8612 23.0634 90.3188 22.1702 87.7678 22.1702C83.575 22.1702 80.6279 25.4057 80.6279 29.3757C80.6279 33.3853 83.6339 36.5414 87.6689 36.5414C90.2593 36.5414 91.8415 35.5886 93.2855 34.08Z" fill="white"/>
<path d="M105.077 30.4475V36.3032H107.51V22.4084H105.077V28.1846H98.4722V22.4084H96.0391V36.3032H98.4722V30.4475H105.077Z" fill="white"/>
<path d="M118.423 22.3091H116.168L110.077 36.3031H112.569L113.993 32.9485H120.539L121.944 36.3031H124.514L118.423 22.3091ZM119.649 30.7849H114.883L117.256 25.227L119.649 30.7849Z" fill="white"/>
<path d="M127.226 22.4084V36.3032H129.658V22.4084H127.226Z" fill="white"/>
<path d="M143.233 32.0156L135.816 22.4084H133.562V36.3032H135.955V26.418L143.589 36.3032H145.627V22.4084H143.233V32.0156Z" fill="white"/>
</g>
</svg>
