<svg width="150" height="60" viewBox="0 0 150 60" fill="none" xmlns="http://www.w3.org/2000/svg">
<path fill-rule="evenodd" clip-rule="evenodd" d="M46.5942 22.1282V13H49.6379V46.4689H46.5942V31.2563H43.5534V46.4689H40.5107V31.2563H7.04272V34.2981H37.4689V46.4689H34.4252V37.3408H19.2126V46.4689H16.1689V37.3408H13.1272V46.4689H10.0854V37.3408H7.04371V46.4689H4V13H7.04371V28.2126H10.0854V13H13.1272V28.2126H46.5961V25.1689H16.1679V13H19.2116V22.1282H34.4243V13H37.4689V22.1282H40.5107V13H43.5534V22.1282H46.5942ZM70.1967 28.4725V25.1689H72.6753V34.2547H70.1967V30.9512H62.7646V34.2547H60.2869V25.1689H62.7656V28.4725H70.1967ZM117.272 30.9512H114.793L117.272 28.4725V25.1699H114.793V28.4725H107.362V25.1699H104.883V34.2547H107.362V30.9512H114.793V34.2547H117.272V30.9512ZM85.8877 25.1689H75.151V34.2547H77.6297V30.9512H85.0638V34.2538H87.5424V25.1689H85.8887H85.8877ZM77.6297 28.4725V27.6456H85.0638V28.4725H77.6297ZM102.405 25.1689V27.6476H92.4948V31.7751H102.405V34.2538H90.0152V25.1689H102.404H102.405ZM132.135 27.6476V25.1689H119.746V34.2547H132.135V31.7761H122.225V30.9512H132.135V28.4725H122.225V27.6476H132.135ZM144.521 30.9512V25.1689H147V34.2547H144.521L137.09 28.4725V34.2538H134.612V25.1689H137.09L144.521 30.9512Z" fill="white"/>
</svg>
