<svg width="150" height="60" viewBox="0 0 150 60" fill="none" xmlns="http://www.w3.org/2000/svg">
<mask id="mask0_622_304" style="mask-type:luminance" maskUnits="userSpaceOnUse" x="24" y="15" width="103" height="31">
<path d="M126.775 15H24V45.8879H126.775V15Z" fill="white"/>
</mask>
<g mask="url(#mask0_622_304)">
<path d="M87.744 39.1307C81.7786 43.5089 73.1324 45.8448 65.6882 45.8448C55.25 45.8448 45.8528 42.0005 38.7437 35.6068C38.1852 35.104 38.6857 34.4188 39.3559 34.8104C47.0279 39.2553 56.5147 41.9293 66.3134 41.9293C72.9224 41.9293 80.1924 40.5678 86.8772 37.7425C87.8872 37.3154 88.7313 38.401 87.744 39.1307Z" fill="white"/>
<path d="M90.2238 36.3052C89.4644 35.3352 85.1836 35.847 83.2622 36.0739C82.677 36.145 82.5875 35.6378 83.1148 35.273C86.5241 32.8837 92.1184 33.5733 92.771 34.3742C93.4236 35.1796 92.601 40.7635 89.3976 43.4287C88.906 43.838 88.4365 43.62 88.6555 43.0772C89.3749 41.2885 90.9879 37.2796 90.2238 36.3052Z" fill="white"/>
<path d="M83.3965 18.4055V16.083C83.3965 15.7315 83.6644 15.4957 83.9859 15.4957H94.4289C94.7641 15.4957 95.032 15.7359 95.032 16.083V18.0718C95.0278 18.4055 94.7462 18.8415 94.2457 19.5312L88.8345 27.2242C90.8449 27.1752 92.9673 27.4734 94.791 28.4967C95.202 28.7281 95.3135 29.0662 95.3446 29.3999V31.8782C95.3446 32.2164 94.9693 32.6123 94.5762 32.4077C91.3633 30.7303 87.0962 30.5478 83.5438 32.4255C83.1817 32.6213 82.8018 32.2297 82.8018 31.8916V29.5379C82.8018 29.1597 82.8065 28.5145 83.1865 27.9405L89.4555 18.9884H83.9996C83.6643 18.9884 83.3965 18.7526 83.3965 18.4055Z" fill="white"/>
<path d="M45.3031 32.8971H42.1261C41.8222 32.8749 41.5809 32.648 41.5586 32.3587V16.123C41.5586 15.7982 41.8312 15.5401 42.1708 15.5401H45.1333C45.4416 15.5534 45.6873 15.7893 45.71 16.0829V18.2053H45.7678C46.5409 16.1541 47.9929 15.1975 49.9501 15.1975C51.9384 15.1975 53.181 16.1541 54.0746 18.2053C54.8429 16.1541 56.5902 15.1975 58.4627 15.1975C59.7942 15.1975 61.251 15.7448 62.1398 16.9728C63.1456 18.3388 62.9398 20.3232 62.9398 22.0629L62.9356 32.3098C62.9356 32.6346 62.663 32.8971 62.3229 32.8971H59.1505C58.8332 32.8749 58.5785 32.6212 58.5785 32.3098V23.7047C58.5785 23.0195 58.6411 21.3109 58.4896 20.6613C58.2528 19.5712 57.5423 19.2643 56.6212 19.2643C55.8529 19.2643 55.0488 19.7759 54.7224 20.5946C54.3961 21.4133 54.4278 22.7837 54.4278 23.7047V32.3098C54.4278 32.6346 54.1551 32.8971 53.8151 32.8971H50.6427C50.3212 32.8749 50.0706 32.6212 50.0706 32.3098L50.0665 23.7047C50.0665 21.8938 50.3659 19.2286 48.1092 19.2286C45.8257 19.2286 45.9152 21.8271 45.9152 23.7047V32.3098C45.9152 32.6346 45.6425 32.8971 45.3031 32.8971Z" fill="white"/>
<path d="M104.023 15.1975C108.736 15.1975 111.288 19.2286 111.288 24.3543C111.288 29.3065 108.469 33.2352 104.023 33.2352C99.3934 33.2352 96.873 29.2041 96.873 24.1808C96.873 19.1263 99.4244 15.1975 104.023 15.1975ZM104.049 18.5123C101.708 18.5123 101.561 21.6891 101.561 23.6691C101.561 25.6536 101.529 29.8893 104.023 29.8893C106.484 29.8893 106.601 26.4722 106.601 24.3899C106.601 23.0195 106.543 21.3822 106.127 20.0829C105.77 18.9528 105.059 18.5123 104.049 18.5123Z" fill="white"/>
<path d="M117.4 32.8971H114.236C113.92 32.8749 113.665 32.6212 113.665 32.3098L113.66 16.0696C113.687 15.7715 113.951 15.5401 114.272 15.5401H117.217C117.494 15.5534 117.722 15.7404 117.785 15.9939V18.4767H117.842C118.732 16.2565 119.979 15.1975 122.173 15.1975C123.598 15.1975 124.988 15.7092 125.881 17.1107C126.712 18.41 126.712 20.5946 126.712 22.1652V32.3854C126.677 32.6702 126.413 32.8971 126.1 32.8971H122.914C122.624 32.8749 122.383 32.6613 122.351 32.3854V23.5668C122.351 21.7915 122.557 19.193 120.363 19.193C119.59 19.193 118.879 19.7092 118.526 20.4922C118.079 21.4845 118.021 22.4722 118.021 23.5668V32.3098C118.017 32.6346 117.74 32.8971 117.4 32.8971Z" fill="white"/>
<path d="M75.0714 25.1418V24.4566C72.7748 24.4566 70.348 24.946 70.348 27.6424C70.348 29.0083 71.0585 29.9338 72.2784 29.9338C73.172 29.9338 73.972 29.3865 74.4773 28.4967C75.1024 27.4021 75.0714 26.3743 75.0714 25.1418ZM78.2754 32.8526C78.0654 33.0394 77.7612 33.0528 77.5244 32.9282C76.4697 32.0561 76.2824 31.6513 75.7014 30.8192C73.9589 32.5901 72.7252 33.1195 70.4644 33.1195C67.7925 33.1195 65.71 31.4777 65.71 28.1896C65.71 25.6224 67.1088 23.8737 69.0971 23.0195C70.8217 22.2631 73.2305 22.1296 75.0714 21.9205V21.5111C75.0714 20.7592 75.1293 19.8693 74.6873 19.2197C74.2983 18.6369 73.5568 18.3966 72.9042 18.3966C71.6932 18.3966 70.6117 19.0151 70.348 20.2964C70.2943 20.5812 70.0844 20.8615 69.7986 20.8749L66.7157 20.5456C66.4562 20.4878 66.1705 20.2787 66.2421 19.8827C66.9525 16.163 70.326 15.0417 73.3468 15.0417C74.8925 15.0417 76.9123 15.4511 78.1323 16.6169C79.6785 18.054 79.5305 19.9716 79.5305 22.0584V26.9883C79.5305 28.4699 80.1474 29.1195 80.7284 29.9204C80.9336 30.2052 80.9783 30.5478 80.7194 30.7613C80.0716 31.2997 78.9185 32.3009 78.2844 32.8615L78.2754 32.8526Z" fill="white"/>
<path d="M33.4218 25.1418V24.4566C31.125 24.4566 28.6987 24.946 28.6987 27.6424C28.6987 29.0083 29.4092 29.9338 30.6291 29.9338C31.5228 29.9338 32.3226 29.3865 32.8275 28.4967C33.4531 27.4021 33.4218 26.3743 33.4218 25.1418ZM36.6257 32.8526C36.4156 33.0394 36.1117 33.0528 35.875 32.9282C34.8204 32.0561 34.6327 31.6513 34.0518 30.8192C32.3092 32.5901 31.0759 33.1195 28.8149 33.1195C26.1428 33.1195 24.0605 31.4777 24.0605 28.1896C24.0605 25.6224 25.4591 23.8737 27.4476 23.0195C29.1724 22.2631 31.5809 22.1296 33.4218 21.9205V21.5111C33.4218 20.7592 33.4799 19.8693 33.0375 19.2197C32.6488 18.6369 31.907 18.3966 31.2546 18.3966C30.0437 18.3966 28.9624 19.0151 28.6987 20.2964C28.6451 20.5812 28.4351 20.8615 28.1491 20.8749L25.066 20.5456C24.8068 20.4878 24.5208 20.2787 24.5923 19.8827C25.3028 16.163 28.6764 15.0417 31.697 15.0417C33.243 15.0417 35.2627 15.4511 36.4827 16.6169C38.0287 18.054 37.8812 19.9716 37.8812 22.0584V26.9883C37.8812 28.4699 38.4979 29.1195 39.0788 29.9204C39.2843 30.2052 39.329 30.5478 39.0699 30.7613C38.422 31.2997 37.2691 32.3009 36.6345 32.8615L36.6257 32.8526Z" fill="white"/>
</g>
</svg>
