<svg width="150" height="60" viewBox="0 0 150 60" fill="none" xmlns="http://www.w3.org/2000/svg">
<path d="M21 16.0174V43.8964H46.9184V40.7639H24.1109V19.1325H46.9184V16H21V16.0174Z" fill="white"/>
<path d="M65.6025 28.4602L69.9719 21.6558H73.5719L68.3987 29.748V30.1831L73.8693 38.2579H70.1292L65.6198 31.4534V28.4602H65.6025Z" fill="white"/>
<path d="M84.1977 31.4536H88.3397L86.4874 23.2222H86.0505L84.1977 31.4536ZM89.039 34.5687H83.4811L82.6595 38.2406H79.4092L83.3416 21.6385H89.1785L93.111 38.2406H89.8601L89.039 34.5687Z" fill="white"/>
<path d="M101.359 21.6385H104.471V35.2648H111.968V38.2406H101.377V21.6385H101.359Z" fill="white"/>
<path d="M49.4889 26.7372C49.4889 26.0759 49.2265 25.5016 48.7195 25.0144C48.213 24.5271 47.4964 24.2835 46.5527 24.2835C45.7662 24.2835 45.1545 24.4401 44.7001 24.7707C44.2457 25.1014 44.0185 25.5364 44.0185 26.0759C44.0185 26.3718 44.071 26.6154 44.1932 26.8591C44.3156 27.0853 44.4904 27.2941 44.77 27.4855C45.0497 27.677 45.3992 27.8336 45.8536 27.9728C46.2905 28.112 46.8672 28.2512 47.5489 28.3731C49.2793 28.6863 50.5896 29.2258 51.5163 29.9567C52.4252 30.705 52.8966 31.8014 52.8966 33.2458V33.5416C52.8966 34.3248 52.757 35.0035 52.4774 35.6474C52.1978 36.2739 51.8131 36.7959 51.2889 37.2484C50.7819 37.7009 50.1532 38.0315 49.4016 38.2752C48.65 38.5014 47.8285 38.6406 46.9022 38.6406C45.8186 38.6406 44.8749 38.484 44.036 38.1882C43.2145 37.8923 42.5155 37.4572 41.9737 36.9004C41.4319 36.3609 40.995 35.717 40.7328 34.9861C40.4532 34.2551 40.2959 33.4372 40.2959 32.5845V32.4453H43.4068C43.4068 33.4372 43.6864 34.2378 44.2632 34.8294C44.8399 35.4212 45.7137 35.717 46.9372 35.717C47.8809 35.717 48.58 35.5081 49.0342 35.0905C49.4889 34.6728 49.7163 34.1856 49.7163 33.6287C49.7163 33.3502 49.6812 33.1066 49.5762 32.8456C49.4711 32.6019 49.3138 32.3931 49.0692 32.1843C48.8424 31.9754 48.51 31.8014 48.0907 31.6447C47.6712 31.4881 47.1644 31.3489 46.5352 31.2445C45.7137 31.1053 44.9448 30.9139 44.2457 30.6876C43.5641 30.4614 42.9524 30.1482 42.4456 29.7827C41.9387 29.3998 41.5368 28.9299 41.2572 28.3556C40.9775 27.7814 40.8202 27.0853 40.8202 26.2673V26.1281C40.8202 25.4494 40.96 24.8229 41.2396 24.2487C41.5193 23.6744 41.9038 23.1697 42.3931 22.7346C42.9 22.2995 43.4767 21.9689 44.1758 21.7427C44.8749 21.5164 45.6439 21.3772 46.5177 21.3772C47.4964 21.3772 48.3528 21.5164 49.1042 21.7949C49.8558 22.0733 50.4851 22.4388 51.0093 22.926C51.5163 23.3959 51.8659 23.9702 52.1628 24.5619C52.5297 25.2928 52.5475 26.7894 52.5475 26.7894L49.4889 26.7372Z" fill="white"/>
<path d="M119.204 21.6385V38.2406H129.9V35.2648H122.315V24.6318H129.9V21.6385H119.204Z" fill="white"/>
<path d="M63.3813 21.6385H60.2705V38.2406H63.3813V21.6385Z" fill="white"/>
<path d="M127.523 28.4604H124.552V31.4537H127.523V28.4604Z" fill="white"/>
</svg>
