<?xml version="1.0" encoding="UTF-8"?> <svg xmlns="http://www.w3.org/2000/svg" xmlns:xlink="http://www.w3.org/1999/xlink" id="Layer_2" data-name="Layer 2" viewBox="0 0 174 64"><defs><style> .cls-1 { fill: #222223; } .cls-2 { fill: url(#linear-gradient); } </style><linearGradient id="linear-gradient" x1="3.72" y1="7.62" x2="170.71" y2="56.51" gradientUnits="userSpaceOnUse"><stop offset="0" stop-color="#3ef2d0"></stop><stop offset=".18" stop-color="#45f6ca"></stop><stop offset=".58" stop-color="#51fcc1"></stop><stop offset="1" stop-color="#55ffbf"></stop></linearGradient></defs><g id="Layer_1-2" data-name="Layer 1"><g id="Color_light"><rect class="cls-2" width="174" height="64" rx="8" ry="8"></rect><g><g><path class="cls-1" d="M85.66,30.14l-1.07-2.59h-4.41l-1.07,2.59h-2.08l4.37-10.7h1.93l4.39,10.7h-2.08ZM83.87,25.76l-1.47-3.63-1.49,3.63h2.96Z"></path><path class="cls-1" d="M91.39,30.37c-1.87,0-3.08-1.18-3.08-3.01v-5.36h1.97v5.29c0,.82.57,1.33,1.47,1.33,1.09,0,1.84-.69,1.85-1.72v-4.9h1.97v8.15h-1.61l-.11-.96c-.52.75-1.42,1.18-2.45,1.18Z"></path><path class="cls-1" d="M100.54,30.37c-2.23,0-3.79-1.79-3.79-4.34s1.53-4.27,3.73-4.27c1.01,0,1.91.37,2.51,1.04v-4.1h1.97v11.45h-1.61l-.14-1.17c-.53.88-1.5,1.4-2.67,1.4ZM100.9,23.44c-1.26,0-2.14,1.07-2.14,2.6s.87,2.63,2.11,2.63,2.12-1.09,2.12-2.66-.86-2.57-2.09-2.57Z"></path><path class="cls-1" d="M106.59,30.14v-8.15h1.97v8.15h-1.97ZM107.57,21.13c-.7,0-1.24-.55-1.24-1.25s.54-1.24,1.24-1.24,1.24.53,1.24,1.24-.53,1.25-1.24,1.25Z"></path><path class="cls-1" d="M113.8,30.14c-1.78,0-2.75-.9-2.75-2.53v-3.92h-1.4v-1.7h1.4v-2.72h1.97v2.72h2.05v1.7h-2.05v3.8c0,.63.3.95.91.95h1v1.7h-1.12Z"></path><path class="cls-1" d="M119.77,30.37c-2.47,0-4.2-1.76-4.2-4.27s1.66-4.34,4.04-4.34,3.85,1.67,3.89,4.25v.52h-5.96c.15,1.32,1,2.14,2.23,2.14.88,0,1.53-.43,1.78-1.18l.02-.07h1.92l-.03.12c-.42,1.77-1.81,2.82-3.71,2.82ZM121.46,25.08c-.24-1.04-.91-1.63-1.84-1.63s-1.69.61-1.97,1.63h3.81Z"></path><path class="cls-1" d="M128.06,30.37c-2.23,0-3.79-1.79-3.79-4.34s1.53-4.27,3.73-4.27c1.01,0,1.91.37,2.51,1.04v-4.1h1.97v11.45h-1.61l-.14-1.17c-.53.88-1.5,1.4-2.67,1.4ZM128.42,23.44c-1.26,0-2.14,1.07-2.14,2.6s.87,2.63,2.11,2.63,2.12-1.09,2.12-2.66-.86-2.57-2.09-2.57Z"></path><path class="cls-1" d="M141.91,30.37c-1.18,0-2.18-.52-2.74-1.42l-.14,1.19h-1.61v-11.45h1.97v4.15c.62-.7,1.53-1.09,2.54-1.09,2.17,0,3.68,1.76,3.68,4.27s-1.52,4.34-3.7,4.34ZM141.52,23.45c-1.26,0-2.13,1.04-2.13,2.53,0,1.58.88,2.69,2.13,2.69s2.08-1.09,2.08-2.64-.85-2.57-2.08-2.57Z"></path><path class="cls-1" d="M146.29,33.14v-1.7h1.54c.58,0,.93-.19,1.08-.59l.26-.71h-.25l-3.23-8.15h2.12l2.21,5.84,2.17-5.84h2.06l-3.51,9.45c-.44,1.16-1.36,1.7-2.9,1.7h-1.54Z"></path><polygon class="cls-1" points="85.48 45.14 85.48 40.58 79.92 40.58 79.92 45.14 77.92 45.14 77.92 34.44 79.92 34.44 79.92 38.76 85.48 38.76 85.48 34.44 87.48 34.44 87.48 45.14 85.48 45.14"></polygon><path class="cls-1" d="M91.99,45.31c-1.08,0-1.94-.29-2.49-.85-.42-.42-.63-.98-.62-1.62.02-1.87,1.77-2.33,3.49-2.53l.27-.03c1.11-.12,1.73-.21,1.74-.68-.01-.74-.59-1.19-1.54-1.19s-1.71.53-1.81,1.31v.09h-1.99v-.11c.18-1.73,1.75-2.94,3.83-2.94s3.43,1.14,3.43,2.96v3.6c0,.15.05.25.29.25h.53v1.58h-.94c-.84,0-1.39-.36-1.54-1.01,0-.01,0-.02-.01-.04-.53.8-1.42,1.21-2.65,1.21ZM94.38,41.21c-.4.34-1.11.43-1.79.51-1.04.13-1.73.26-1.73,1,0,.64.53,1,1.49,1,1.2,0,2.03-.68,2.03-1.66v-.85Z"></path><path class="cls-1" d="M101.89,45.37c-2.52,0-4.21-1.75-4.21-4.36s1.67-4.25,4.17-4.25c2.21,0,3.74,1.34,3.89,3.41v.11s-1.93,0-1.93,0v-.08c-.17-1.06-.93-1.71-1.98-1.71-1.31,0-2.15,1-2.15,2.54s.87,2.65,2.21,2.65c1.02,0,1.74-.65,1.91-1.75v-.08h1.95v.11c-.23,2.12-1.7,3.43-3.86,3.43Z"></path><polygon class="cls-1" points="112.7 45.14 110.24 41.35 108.89 42.7 108.92 45.14 106.95 45.14 106.95 33.69 108.92 33.69 108.92 40.3 112.14 37.02 114.61 36.99 111.62 39.97 114.94 45.14 112.7 45.14"></polygon><path class="cls-1" d="M118.81,45.37c-2.47,0-4.19-1.76-4.19-4.27s1.66-4.34,4.04-4.34,3.85,1.67,3.89,4.25v.52h-5.96c.15,1.32,1,2.14,2.23,2.14.88,0,1.53-.43,1.78-1.18l.02-.07h1.92l-.03.12c-.42,1.77-1.81,2.82-3.71,2.82ZM120.5,40.08c-.24-1.04-.91-1.63-1.84-1.63s-1.69.61-1.97,1.63h3.81Z"></path><path class="cls-1" d="M129.03,45.14v-5.27c0-.84-.57-1.37-1.47-1.37-1.08,0-1.84.71-1.85,1.73v4.91h-1.97v-8.15h1.61l.13.99c.57-.77,1.55-1.23,2.62-1.23,1.76,0,2.9,1.19,2.9,3.02v5.36h-1.97Z"></path></g><path class="cls-1" d="M58.72,16.34v8.54h-2.78v-8.54h-2.78v8.54h-2.78v-8.54h-2.78v8.54h-13.92v-8.54h-2.78v11.39h27.83v2.85h-30.62v-14.23h-2.78v14.23h-2.78v-14.23h-2.78v31.31h2.78v-8.54h2.78v8.54h2.78v-8.54h2.78v8.54h2.78v-8.54h13.92v8.54h2.78v-11.39h-27.83v-2.85h30.62v14.23h2.78v-14.23h2.78v14.23h2.78v-31.31h-2.78Z"></path></g></g></g></svg> 