<svg width="150" height="60" viewBox="0 0 150 60" fill="none" xmlns="http://www.w3.org/2000/svg">
<path d="M33.9272 32.1354C34.3132 31.4783 35.2717 31.4783 35.6535 32.1354L39.755 39.1389C40.1409 39.796 39.6574 40.6142 38.8897 40.6142H30.6868C29.919 40.6142 29.4397 39.796 29.8215 39.1389L33.923 32.1354H33.9272Z" fill="white"/>
<path d="M31.4498 27.4714C31.8231 26.8185 31.8231 26.013 31.4498 25.3559L28.0864 19.4928C27.7089 18.8357 26.7673 18.8357 26.3898 19.4928L15.133 39.134C14.7555 39.7911 15.2263 40.6135 15.9813 40.6135H22.704C23.4547 40.6135 24.1461 40.2108 24.5193 39.5579L31.4456 27.4714H31.4498Z" fill="white"/>
<path d="M54.7137 38.9781V40.6145H53.7382C52.5718 40.6145 52.1349 40.1101 52.118 39.2537C51.5242 40.1228 50.5995 40.7163 49.2083 40.7163C47.2743 40.7163 45.9297 39.7582 45.9297 38.1048C45.9297 36.2564 47.236 35.2475 49.713 35.2475H51.9271V34.7091C51.9271 33.717 51.2146 33.1066 49.993 33.1066C48.8945 33.1066 48.1649 33.628 48.025 34.4123H46.1587C46.3666 32.6869 47.8299 31.5889 50.0821 31.5889C52.3343 31.5889 53.7934 32.7208 53.7934 34.8278V38.3973C53.7934 38.851 53.9502 38.9739 54.349 38.9739H54.7137V38.9781ZM51.9271 36.6422H49.6282C48.4788 36.6422 47.8341 37.0789 47.8341 37.9819C47.8341 38.7322 48.4618 39.2537 49.4713 39.2537C51.0067 39.2537 51.9271 38.3295 51.9271 36.9899V36.6422Z" fill="white"/>
<path d="M58.8102 40.614L55.4297 31.6943H57.4529L59.9979 38.5918L62.5254 31.6943H64.5105L61.1132 40.614H58.8145H58.8102Z" fill="white"/>
<path d="M74.1236 38.9781V40.6145H73.148C71.9817 40.6145 71.545 40.1101 71.528 39.2537C70.9341 40.1228 70.0097 40.7163 68.6184 40.7163C66.6844 40.7163 65.3398 39.7582 65.3398 38.1048C65.3398 36.2564 66.6459 35.2475 69.1232 35.2475H71.3372V34.7091C71.3372 33.717 70.6245 33.1066 69.4031 33.1066C68.3044 33.1066 67.5752 33.628 67.435 34.4123H65.5687C65.7765 32.6869 67.2398 31.5889 69.4922 31.5889C71.7441 31.5889 73.2035 32.7208 73.2035 34.8278V38.3973C73.2035 38.851 73.3603 38.9739 73.759 38.9739H74.1236V38.9781ZM71.3328 36.6422H69.0341C67.8848 36.6422 67.2398 37.0789 67.2398 37.9819C67.2398 38.7322 67.8678 39.2537 68.8769 39.2537C70.4127 39.2537 71.3328 38.3295 71.3328 36.9899V36.6422Z" fill="white"/>
<path d="M82.7406 38.9605V40.6139H75.4922V38.9605H78.1852V30.1934L75.4922 31.0837V29.4218L77.7952 28.54H80.0685V38.9647H82.7449L82.7406 38.9605Z" fill="white"/>
<path d="M92.7803 38.9781V40.6145H91.8047C90.6384 40.6145 90.2013 40.1101 90.1847 39.2537C89.5908 40.1228 88.6659 40.7163 87.2747 40.7163C85.3406 40.7163 83.9961 39.7582 83.9961 38.1048C83.9961 36.2564 85.3026 35.2475 87.7795 35.2475H89.9938V34.7091C89.9938 33.717 89.2812 33.1066 88.0594 33.1066C86.9611 33.1066 86.2314 33.628 86.0917 34.4123H84.2253C84.4332 32.6869 85.8965 31.5889 88.1484 31.5889C90.4008 31.5889 91.8598 32.7208 91.8598 34.8278V38.3973C91.8598 38.851 92.017 38.9739 92.4156 38.9739H92.7803V38.9781ZM89.9938 36.6422H87.6947C86.5454 36.6422 85.9004 37.0789 85.9004 37.9819C85.9004 38.7322 86.5284 39.2537 87.538 39.2537C89.0733 39.2537 89.9938 38.3295 89.9938 36.9899V36.6422Z" fill="white"/>
<path d="M102.861 35.5273V40.6145H100.96V35.7011C100.96 34.1156 100.282 33.2465 98.937 33.2465C97.5248 33.2465 96.672 34.2724 96.672 35.9978V40.6145H94.7891V31.6948H96.4262L96.634 32.8607C97.1729 32.1654 98.0126 31.5889 99.3698 31.5889C101.27 31.5889 102.856 32.6148 102.856 35.5273H102.861Z" fill="white"/>
<path d="M105.172 36.1717C105.172 33.4203 106.933 31.5889 109.617 31.5889C111.899 31.5889 113.329 32.8607 113.677 34.8829H111.709C111.463 33.8357 110.716 33.1914 109.584 33.1914C108.086 33.1914 107.089 34.4293 107.089 36.1717C107.089 37.914 108.082 39.1138 109.584 39.1138C110.699 39.1138 111.467 38.4525 111.691 37.4223H113.677C113.346 39.4445 111.827 40.7163 109.562 40.7163C106.878 40.7163 105.168 38.9569 105.168 36.1717H105.172Z" fill="white"/>
<path d="M124.094 35.5262V40.6134H122.193V35.683C122.193 34.1483 121.515 33.2454 120.12 33.2454C118.724 33.2454 117.82 34.2925 117.82 35.9797V40.6134H115.938V28.4209H117.82V32.8299C118.431 32.0626 119.356 31.592 120.556 31.592C122.647 31.592 124.094 32.8299 124.094 35.5304V35.5262Z" fill="white"/>
<path d="M128.288 36.591V36.68C128.34 38.1935 129.281 39.1898 130.744 39.1898C131.86 39.1898 132.712 38.6132 132.958 37.6212H134.842C134.528 39.3805 133.047 40.7202 130.85 40.7202C128.064 40.7202 126.32 38.9099 126.32 36.1755C126.32 33.4411 128.064 31.5928 130.66 31.5928C133.255 31.5928 134.948 33.2292 134.998 35.8449C134.998 36.0356 134.981 36.3324 134.948 36.5952H128.288V36.591ZM128.357 35.1793H133.043C132.886 33.8566 131.979 33.1062 130.672 33.1062C129.506 33.1062 128.492 33.9075 128.352 35.1793H128.357Z" fill="white"/>
</svg>
