<?xml version="1.0" encoding="utf-8"?>
<!-- Generator: Adobe Illustrator 28.0.0, SVG Export Plug-In . SVG Version: 6.00 Build 0)  -->
<svg version="1.1" id="Layer_1" xmlns="http://www.w3.org/2000/svg" xmlns:xlink="http://www.w3.org/1999/xlink" x="0px" y="0px"
	 viewBox="0 0 196.5 49" style="enable-background:new 0 0 196.5 49;" xml:space="preserve">
<style type="text/css">
	.st0{fill:#FFFFFF;}
	.st1{fill:#F44AD3;}
	.st2{fill:#2976FF;}
</style>
<g>
	<path class="st0" d="M72.4,29.6l10.8-11.1v-0.2H72.4v-6.4h21.3v6.4L82.5,29.4v0.3h11.3V36H72.4V29.6z"/>
	<path class="st0" d="M104.6,18.2v2.5h13.2v6.4h-13.2v2.5h13.2V36H96.5V11.9h21.3v6.3H104.6z"/>
	<path class="st0" d="M120.4,29.6H133c1.1,0,1.6-0.5,1.6-1.3c0-0.8-0.5-1.2-1.6-1.2h-5.7c-4,0-7.3-2.8-7.3-7.6
		c0-5.6,3.8-7.6,7.7-7.6h14.2v6.4h-12.3c-0.9,0-1.6,0.3-1.6,1.2c0,0.9,0.7,1.3,1.6,1.3h5.4c4.6,0,7.7,2.7,7.7,7.6
		c0,4.6-3.4,7.7-7.9,7.7h-14.4L120.4,29.6L120.4,29.6z"/>
	<path class="st0" d="M171,11.9V36h-8.1v-8.9h-9.7V36h-8.1V11.9h8.1v8.8h9.7v-8.8H171z"/>
	<path class="st0" d="M60.5,11.9H24.2L0,36h36.3L60.5,11.9z"/>
	<path class="st1" d="M60.5,36H24.4v12h36.1V36z"/>
	<path class="st2" d="M36.3-0.1H0.1v12h36.1V-0.1z"/>
	<g>
		<path class="st1" d="M184.5,24.6h-5.3l-0.4,1.5h-5.1l4.3-14.6h7.7l4.3,14.6h-5.1L184.5,24.6z M183.4,20.7l-1.4-5.4h-0.3l-1.4,5.4
			H183.4z"/>
		<path class="st1" d="M191,11.5h4.9v14.6H191V11.5z"/>
	</g>
</g>
</svg>
