<svg width="150" height="60" viewBox="0 0 150 60" fill="none" xmlns="http://www.w3.org/2000/svg">
<path fill-rule="evenodd" clip-rule="evenodd" d="M12.3013 37.6031H34.0523C41.1943 37.6031 46.9917 31.8057 46.9917 24.6636C46.9917 17.5215 41.1943 11.7242 34.0523 11.7242H22.0393C16.6595 11.7242 12.3013 16.0823 12.3013 21.4621V37.6031ZM34.0523 39.3495C42.1589 39.3495 48.7381 32.7702 48.7381 24.6636C48.7381 16.557 42.1589 9.97778 34.0523 9.97778H22.0393C15.695 9.97778 10.5549 15.1178 10.5549 21.4621V39.3495H34.0523Z" fill="white"/>
<path fill-rule="evenodd" clip-rule="evenodd" d="M21.5226 23.2885L21.52 23.2872C17.7579 21.3985 15.4909 19.4059 14.2915 17.381C14.0822 17.0277 13.9081 16.6778 13.7654 16.333C12.8383 17.8233 12.3013 19.5826 12.3013 21.4621V37.6031H34.0523C36.7322 37.6031 39.2096 36.7872 41.2625 35.3981C40.5199 32.4836 38.4444 30.6979 35.1852 29.0808C33.4728 28.2311 31.5263 27.475 29.3616 26.6341C29.2084 26.5746 29.0542 26.5146 28.8988 26.4542C26.5777 25.5516 24.0552 24.5548 21.5226 23.2885ZM43.1869 36.148C40.6903 38.1452 37.5181 39.3495 34.0523 39.3495H10.5549V21.4621C10.5549 18.6606 11.5661 16.0874 13.2361 14.095C13.8071 13.4136 14.4552 12.8002 15.1663 12.2688C14.9694 12.9579 14.887 13.7696 15.0712 14.6675C15.4915 16.7167 17.3 19.2145 22.3036 21.7265C24.9273 23.0383 27.553 24.0581 30.0157 25.0146C36.7612 27.6345 42.2832 29.7791 43.1869 36.148Z" fill="white"/>
<path fill-rule="evenodd" clip-rule="evenodd" d="M12.3013 30.9906V43.5204C12.3013 47.0364 16.0151 49.3403 19.175 47.7729C19.1757 47.7726 19.1764 47.7722 19.1771 47.7719L20.5827 47.0691C26.2387 44.2411 25.6515 35.9928 19.6675 33.9871C19.4081 33.9016 19.1473 33.8164 18.8861 33.7311C16.5726 32.9755 14.2251 32.2087 12.4486 31.0853C12.3993 31.0541 12.3502 31.0226 12.3013 30.9906ZM10.5549 43.5204C10.5549 48.3374 15.6362 51.4802 19.9539 49.336L21.3637 48.6311C28.4129 45.1065 27.6786 34.8264 20.2182 32.3298C19.9613 32.2451 19.7067 32.1618 19.4548 32.0793C16.4933 31.1096 13.9107 30.2641 12.3013 28.7946C11.2005 27.7894 10.5549 26.4923 10.5549 24.6638V43.5204Z" fill="white"/>
<path fill-rule="evenodd" clip-rule="evenodd" d="M36.9894 15.8521C40.336 16.5258 43.2164 17.6497 45.6781 18.9858C46.5435 19.4556 47.3572 19.9516 48.1213 20.4635C47.8368 19.5029 47.4554 18.5831 46.9884 17.7153C44.5139 13.1165 39.6364 9.97778 34.0522 9.97778H23.8015C24.2935 10.5291 24.9471 11.1221 25.8169 11.7242C27.9589 13.207 31.4119 14.745 36.9894 15.8521ZM29.3779 11.7242C31.2697 12.5926 33.8397 13.4464 37.3294 14.1391L37.334 14.1401C39.6918 14.6147 41.8324 15.3019 43.7696 16.1268C41.3973 13.4312 37.9156 11.7242 34.0522 11.7242H29.3779Z" fill="white"/>
<path d="M56.5874 41.4709V24.4421C56.5874 24.1211 56.6934 23.8604 56.9054 23.6598C57.1174 23.4392 57.3776 23.3289 57.6859 23.3289H62.5136C64.0361 23.3289 65.337 23.8604 66.4163 24.9234C67.4762 25.9664 68.0062 27.2902 68.0062 28.8948C68.0062 30.4794 67.4762 31.7931 66.4163 32.8361C65.337 33.8992 64.0361 34.4307 62.5136 34.4307H58.7555V41.4709C58.7555 41.9322 58.5724 42.2532 58.2063 42.4337C57.8594 42.6142 57.5028 42.6142 57.1367 42.4337C56.7705 42.2532 56.5874 41.9322 56.5874 41.4709ZM58.7555 25.5853V32.1742H62.5425C63.4483 32.1742 64.2385 31.8433 64.913 31.1814C65.549 30.5195 65.867 29.7372 65.867 28.8347C65.867 27.9321 65.5394 27.1498 64.8841 26.4879C64.2674 25.8862 63.4772 25.5853 62.5136 25.5853H58.7555Z" fill="white"/>
<path d="M75.1825 42.7646C73.2745 42.7646 71.646 42.0626 70.297 40.6586C68.9479 39.2546 68.2734 37.5697 68.2734 35.6041C68.2734 33.5983 68.9479 31.9035 70.297 30.5195C71.646 29.1155 73.2745 28.4134 75.1825 28.4134C77.0712 28.4134 78.69 29.1054 80.0391 30.4894C81.3689 31.8333 82.0434 33.5081 82.0627 35.5138V41.4107C82.0627 41.7517 81.9567 42.0325 81.7447 42.2532C81.5327 42.4738 81.2629 42.5841 80.9353 42.5841C80.6269 42.5841 80.3764 42.4738 80.1836 42.2532C79.9909 42.0325 79.8946 41.7517 79.8946 41.4107L79.8657 40.6586C78.5166 42.0626 76.9555 42.7646 75.1825 42.7646ZM75.1825 40.5082C76.493 40.5082 77.6108 40.0167 78.5359 39.0339C79.4417 38.0912 79.8946 36.9479 79.8946 35.6041C79.8946 34.2201 79.4417 33.0568 78.5359 32.1141C77.6493 31.1513 76.5316 30.6699 75.1825 30.6699C73.872 30.6699 72.7542 31.1513 71.8291 32.1141C70.9233 33.0969 70.4704 34.2602 70.4704 35.6041C70.4704 36.9279 70.933 38.0712 71.858 39.0339C72.7446 40.0167 73.8527 40.5082 75.1825 40.5082Z" fill="white"/>
<path d="M86.7711 42.2532C86.5784 42.4738 86.3279 42.5841 86.0195 42.5841C85.7112 42.5841 85.451 42.4738 85.239 42.2532C85.027 42.0325 84.921 41.7618 84.921 41.4408V29.5266C84.9017 29.0653 85.0752 28.7444 85.4414 28.5639C85.8268 28.3633 86.2026 28.3633 86.5688 28.5639C86.9542 28.7444 87.1277 29.0653 87.0891 29.5266V30.5496C88.5153 29.1255 90.1823 28.4134 92.0903 28.4134H92.177C92.5239 28.4134 92.7937 28.5238 92.9864 28.7444C93.1984 28.945 93.3044 29.2057 93.3044 29.5266C93.3044 29.8676 93.1888 30.1484 92.9575 30.3691C92.7455 30.5696 92.4854 30.6699 92.177 30.6699H92.0903C90.7412 30.6699 89.5656 31.1814 88.5635 32.2043C87.5806 33.2273 87.0891 34.4608 87.0891 35.9049V41.4408C87.0891 41.7618 86.9831 42.0325 86.7711 42.2532Z" fill="white"/>
<path d="M94.8253 25.1641C94.806 24.6226 95.0084 24.2415 95.4324 24.0208C95.8756 23.8002 96.3189 23.8002 96.7622 24.0208C97.2054 24.2415 97.4078 24.6226 97.3692 25.1641C97.3692 25.5252 97.244 25.8361 96.9934 26.0968C96.7622 26.3575 96.4634 26.4879 96.0973 26.4879C95.7504 26.4879 95.4516 26.3575 95.2011 26.0968C94.9506 25.8361 94.8253 25.5252 94.8253 25.1641ZM95.0276 41.4408V29.5266C95.0084 29.0653 95.1818 28.7444 95.548 28.5639C95.9334 28.3633 96.3093 28.3633 96.6754 28.5639C97.0609 28.7444 97.2343 29.0653 97.1958 29.5266V41.4408C97.2343 41.9022 97.0609 42.2331 96.6754 42.4337C96.3093 42.6142 95.9334 42.6142 95.548 42.4337C95.1818 42.2331 95.0084 41.9022 95.0276 41.4408Z" fill="white"/>
<path d="M106.991 42.7345C105.141 42.7345 103.56 42.0827 102.25 40.7789V41.4709C102.25 41.9322 102.067 42.2532 101.701 42.4337C101.354 42.6142 100.997 42.6142 100.631 42.4337C100.265 42.2532 100.082 41.9322 100.082 41.4709V24.4421C100.082 23.9807 100.255 23.6598 100.602 23.4793C100.968 23.2988 101.334 23.2988 101.701 23.4793C102.067 23.6598 102.25 23.9807 102.25 24.4421V30.3691C103.618 29.0653 105.198 28.4134 106.991 28.4134C108.899 28.4134 110.518 29.1155 111.847 30.5195C113.177 31.9035 113.842 33.5983 113.842 35.6041C113.842 37.5697 113.177 39.2546 111.847 40.6586C110.479 42.0426 108.86 42.7345 106.991 42.7345ZM110.315 39.0339C111.221 38.1113 111.684 36.968 111.703 35.6041C111.703 34.2001 111.24 33.0367 110.315 32.1141C109.409 31.1513 108.301 30.6699 106.991 30.6699C105.68 30.6699 104.562 31.1513 103.637 32.1141C102.712 33.0367 102.25 34.2001 102.25 35.6041C102.25 36.9078 102.703 38.0511 103.608 39.0339C104.534 39.9967 105.651 40.4781 106.962 40.4781C108.292 40.4781 109.409 39.9967 110.315 39.0339Z" fill="white"/>
<path d="M125.545 41.4709V40.3577C124.331 41.842 122.914 42.5841 121.295 42.5841C119.619 42.5841 118.289 41.9523 117.306 40.6887C116.323 39.4852 115.812 37.8104 115.774 35.6643V29.5266C115.774 29.2057 115.88 28.9349 116.092 28.7143C116.304 28.4937 116.564 28.3834 116.872 28.3834C117.181 28.3834 117.441 28.4937 117.653 28.7143C117.865 28.9349 117.971 29.2057 117.971 29.5266V35.6943C117.99 37.1786 118.308 38.3219 118.925 39.1242C119.542 39.9265 120.419 40.3276 121.556 40.3276C122.654 40.3276 123.579 39.9064 124.331 39.064C125.082 38.2416 125.487 37.1886 125.545 35.9049V29.5567C125.526 29.0954 125.699 28.7745 126.065 28.594C126.431 28.3934 126.798 28.3934 127.164 28.594C127.549 28.7745 127.732 29.0954 127.713 29.5567V41.4709C127.732 41.9322 127.549 42.2532 127.164 42.4337C126.798 42.6142 126.422 42.6142 126.036 42.4337C125.67 42.2532 125.506 41.9322 125.545 41.4709Z" fill="white"/>
<path d="M134.704 42.7345C133.702 42.7345 132.767 42.534 131.9 42.1328C130.956 41.6915 130.281 41.0597 129.876 40.2374C129.78 39.9967 129.732 39.7861 129.732 39.6056C129.732 39.2445 129.886 38.9738 130.194 38.7932C130.349 38.6929 130.532 38.6428 130.744 38.6428C131.129 38.6428 131.447 38.8233 131.698 39.1844C132.006 39.7059 132.411 40.107 132.912 40.3878C133.413 40.6285 134.01 40.7488 134.704 40.7488C135.437 40.7488 136.044 40.5583 136.525 40.1772C137.084 39.8162 137.354 39.3248 137.335 38.703C137.316 38.0812 136.998 37.5697 136.381 37.1686C135.976 36.8878 135.302 36.617 134.357 36.3562C133.008 35.915 132.016 35.4336 131.38 34.9121C130.493 34.2301 130.05 33.3677 130.05 32.3247C130.05 31.1212 130.522 30.1484 131.466 29.4063C132.314 28.7243 133.365 28.3834 134.617 28.3834C135.465 28.3834 136.265 28.5539 137.017 28.8948C137.846 29.296 138.414 29.8175 138.722 30.4593C138.8 30.5997 138.838 30.7602 138.838 30.9407C138.838 31.1413 138.761 31.3519 138.607 31.5725C138.433 31.7931 138.192 31.9035 137.884 31.9035C137.788 31.9035 137.662 31.8734 137.508 31.8132C136.622 30.8705 135.706 30.3991 134.762 30.3991C134.03 30.3991 133.451 30.5295 133.027 30.7903C132.488 31.1112 132.218 31.5926 132.218 32.2344C132.218 32.8161 132.488 33.2874 133.027 33.6485C133.355 33.8892 133.991 34.1499 134.935 34.4307C136.496 34.9522 137.547 35.4336 138.086 35.8749C138.992 36.5769 139.445 37.4895 139.445 38.6127C139.445 39.8162 138.992 40.799 138.086 41.5612C137.123 42.3434 135.995 42.7345 134.704 42.7345Z" fill="white"/>
</svg>
