<svg width="35" height="35" viewBox="0 0 35 35" fill="none" xmlns="http://www.w3.org/2000/svg">
<rect width="35" height="35" rx="17.5" fill="#58D7FC"/>
<path d="M13.3546 25H10.248V14.9781H13.3593V25H13.3546ZM11.8013 13.6094C10.8047 13.6094 10 12.7984 10 11.8047C10 10.8109 10.8047 10 11.8013 10C12.7932 10 13.6026 10.8109 13.6026 11.8047C13.6026 12.8031 12.7979 13.6094 11.8013 13.6094ZM25 25H21.8933V20.125C21.8933 18.9625 21.8699 17.4672 20.2792 17.4672C18.6603 17.4672 18.4124 18.7328 18.4124 20.0406V25H15.3057V14.9781H18.286V16.3469H18.3281C18.7445 15.5594 19.7598 14.7297 21.2711 14.7297C24.4152 14.7297 25 16.8063 25 19.5062V25Z" fill="#191E29"/>
</svg>
