<svg width="70" height="67" viewBox="0 0 70 67" fill="none" xmlns="http://www.w3.org/2000/svg">
<rect x="0.5" y="0.893066" width="69" height="65" rx="6.5" fill="#010004"/>
<rect x="0.5" y="0.893066" width="69" height="65" rx="6.5" stroke="#1877F2"/>
<path d="M37.8301 24.312H48.5641C49.3055 24.312 49.6762 24.312 49.8994 24.4681C50.0944 24.6045 50.2245 24.8151 50.2593 25.0504C50.2991 25.32 50.1333 25.6515 49.8018 26.3146L47.6357 30.6468C47.5284 30.8614 47.4747 30.9688 47.4519 31.0816C47.4318 31.1815 47.4295 31.2842 47.4451 31.385C47.4627 31.4987 47.5114 31.6084 47.6089 31.8277L49.9383 37.0689C50.2265 37.7174 50.3706 38.0416 50.3234 38.3034C50.2821 38.5321 50.1505 38.7346 49.9583 38.8652C49.7383 39.0147 49.3834 39.0147 48.6738 39.0147H35.4085C34.4398 39.0147 33.9554 39.0147 33.5854 38.8262C33.2599 38.6603 32.9953 38.3957 32.8295 38.0702C32.6409 37.7002 32.6409 37.2159 32.6409 36.2471V32.0958M19.668 49.3931L19.668 19.1228M19.668 32.0958H35.0626C36.0313 32.0958 36.5157 32.0958 36.8857 31.9072C37.2112 31.7414 37.4758 31.4768 37.6416 31.1513C37.8301 30.7813 37.8301 30.2969 37.8301 29.3282V20.1606C37.8301 19.1919 37.8301 18.7075 37.6416 18.3375C37.4758 18.012 37.2112 17.7474 36.8857 17.5816C36.5157 17.3931 36.0313 17.3931 35.0626 17.3931L22.4355 17.3931C21.4668 17.3931 20.9824 17.3931 20.6124 17.5816C20.2869 17.7474 20.0223 18.012 19.8565 18.3375C19.668 18.7075 19.668 19.1919 19.668 20.1606V32.0958Z" stroke="#1877F2" stroke-width="2" stroke-linecap="round" stroke-linejoin="round"/>
</svg>
