<svg width="71" height="67" viewBox="0 0 71 67" fill="none" xmlns="http://www.w3.org/2000/svg">
<rect x="0.664062" y="0.893066" width="69" height="65" rx="6.5" fill="#010004"/>
<rect x="0.664062" y="0.893066" width="69" height="65" rx="6.5" stroke="#1877F2"/>
<path d="M34.7539 38.7265L29.8308 33.8035M34.7539 38.7265C37.0461 37.8547 39.2451 36.7552 41.3179 35.4445M34.7539 38.7265V46.9316C34.7539 46.9316 39.7261 46.029 41.3179 43.6496C43.0902 40.9911 41.3179 35.4445 41.3179 35.4445M29.8308 33.8035C30.7041 31.538 31.8037 29.3663 33.1128 27.3216C35.0249 24.2643 37.6873 21.7471 40.8469 20.0094C44.0065 18.2716 47.5581 17.3711 51.1639 17.3935C51.1639 21.857 49.8839 29.701 41.3179 35.4445M29.8308 33.8035H21.6258C21.6258 33.8035 22.5284 28.8313 24.9078 27.2395C27.5663 25.4672 33.1128 27.2395 33.1128 27.2395M22.4463 41.188C19.9848 43.2557 19.1643 49.3931 19.1643 49.3931C19.1643 49.3931 25.3017 48.5726 27.3693 46.1111C28.5344 44.7326 28.518 42.6157 27.2216 41.3357C26.5838 40.7269 25.7436 40.3751 24.8622 40.3479C23.9809 40.3206 23.1206 40.6198 22.4463 41.188Z" stroke="#1877F2" stroke-width="2" stroke-linecap="round" stroke-linejoin="round"/>
</svg>
