<svg width="71" height="67" viewBox="0 0 71 67" fill="none" xmlns="http://www.w3.org/2000/svg">
<rect x="0.828125" y="0.893066" width="69" height="65" rx="6.5" fill="#010004"/>
<rect x="0.828125" y="0.893066" width="69" height="65" rx="6.5" stroke="#1877F2"/>
<path d="M34.5281 22.1931H35.2232C40.0988 22.1931 42.5365 22.1931 43.4619 23.0687C44.2619 23.8257 44.6164 24.9407 44.4004 26.0206C44.1505 27.2699 42.1603 28.6776 38.1798 31.4931L31.6765 36.093C27.696 38.9085 25.7057 40.3162 25.4559 41.5655C25.2399 42.6454 25.5944 43.7605 26.3943 44.5174C27.3197 45.3931 29.7575 45.3931 34.6331 45.3931H36.1281M28.9281 22.1931C28.9281 24.844 26.7791 26.9931 24.1281 26.9931C21.4772 26.9931 19.3281 24.844 19.3281 22.1931C19.3281 19.5421 21.4772 17.3931 24.1281 17.3931C26.7791 17.3931 28.9281 19.5421 28.9281 22.1931ZM51.3281 44.5931C51.3281 47.244 49.1791 49.3931 46.5281 49.3931C43.8772 49.3931 41.7281 47.244 41.7281 44.5931C41.7281 41.9421 43.8772 39.7931 46.5281 39.7931C49.1791 39.7931 51.3281 41.9421 51.3281 44.5931Z" stroke="#1877F2" stroke-width="2" stroke-linecap="round" stroke-linejoin="round"/>
</svg>
