<svg width="71" height="67" viewBox="0 0 71 67" fill="none" xmlns="http://www.w3.org/2000/svg">
<rect x="0.9375" y="0.893066" width="69" height="65" rx="6.5" fill="#010004"/>
<rect x="0.9375" y="0.893066" width="69" height="65" rx="6.5" stroke="#1877F2"/>
<path d="M37.1375 16.3931L21.9964 34.5624C21.4034 35.274 21.1069 35.6298 21.1024 35.9303C21.0985 36.1915 21.2149 36.44 21.418 36.6042C21.6518 36.7931 22.1149 36.7931 23.0412 36.7931H35.4375L33.7375 50.3931L48.8786 32.2237C49.4716 31.5121 49.7681 31.1564 49.7726 30.8559C49.7766 30.5947 49.6602 30.3461 49.457 30.1819C49.2232 29.9931 48.7601 29.9931 47.8339 29.9931H35.4375L37.1375 16.3931Z" stroke="#1877F2" stroke-width="2" stroke-linecap="round" stroke-linejoin="round"/>
</svg>
