<svg width="71" height="67" viewBox="0 0 71 67" fill="none" xmlns="http://www.w3.org/2000/svg">
<rect x="0.891113" y="0.893066" width="69" height="65" rx="6.5" fill="white"/>
<rect x="0.891113" y="0.893066" width="69" height="65" rx="6.5" stroke="#1877F2"/>
<path d="M21.275 23.2127C20.0355 21.8274 19.4158 21.1347 19.3924 20.5461C19.3721 20.0347 19.5919 19.5432 19.9865 19.2174C20.4408 18.8423 21.3702 18.8423 23.229 18.8423H47.5532C49.412 18.8423 50.3415 18.8423 50.7957 19.2174C51.1904 19.5432 51.4101 20.0347 51.3898 20.5461C51.3664 21.1347 50.7467 21.8274 49.5072 23.2127L40.156 33.664C39.909 33.9402 39.7854 34.0782 39.6973 34.2354C39.6192 34.3747 39.5619 34.5248 39.5272 34.6807C39.488 34.8566 39.488 35.0418 39.488 35.4124V44.175C39.488 44.4955 39.488 44.6557 39.4364 44.7943C39.3907 44.9167 39.3164 45.0264 39.2197 45.1143C39.1103 45.2137 38.9615 45.2732 38.6639 45.3923L33.0921 47.621C32.4898 47.8619 32.1886 47.9824 31.9469 47.9321C31.7355 47.8882 31.5499 47.7626 31.4306 47.5826C31.2942 47.3768 31.2942 47.0525 31.2942 46.4037V35.4124C31.2942 35.0419 31.2942 34.8566 31.2551 34.6807C31.2204 34.5248 31.163 34.3747 31.0849 34.2354C30.9968 34.0782 30.8733 33.9402 30.6262 33.664L21.275 23.2127Z" stroke="#1877F2" stroke-width="2" stroke-linecap="round" stroke-linejoin="round"/>
</svg>
