<svg width="71" height="67" viewBox="0 0 71 67" fill="none" xmlns="http://www.w3.org/2000/svg">
<rect x="0.562988" y="0.893066" width="69" height="65" rx="6.5" fill="white"/>
<rect x="0.562988" y="0.893066" width="69" height="65" rx="6.5" stroke="#1877F2"/>
<path d="M25.463 23.7931L28.663 20.5931M28.663 20.5931L25.463 17.3931M28.663 20.5931H25.463C21.9284 20.5931 19.063 23.4584 19.063 26.9931M44.663 42.9931L41.463 46.1931M41.463 46.1931L44.663 49.3931M41.463 46.1931H44.663C48.1976 46.1931 51.063 43.3277 51.063 39.7931M32.1654 24.5931C33.2311 20.4525 36.9898 17.3931 41.463 17.3931C46.7649 17.3931 51.063 21.6911 51.063 26.9931C51.063 31.4662 48.0036 35.2249 43.8631 36.2906M38.263 39.7931C38.263 45.095 33.9649 49.3931 28.663 49.3931C23.3611 49.3931 19.063 45.095 19.063 39.7931C19.063 34.4911 23.3611 30.1931 28.663 30.1931C33.9649 30.1931 38.263 34.4911 38.263 39.7931Z" stroke="#1877F2" stroke-width="2" stroke-linecap="round" stroke-linejoin="round"/>
</svg>
