<svg width="71" height="67" viewBox="0 0 71 67" fill="none" xmlns="http://www.w3.org/2000/svg">
<rect x="0.727051" y="0.893066" width="69" height="65" rx="6.5" fill="white"/>
<rect x="0.727051" y="0.893066" width="69" height="65" rx="6.5" stroke="#1877F2"/>
<path d="M51.227 28.0598L51.227 17.3931M51.227 17.3931H40.5604M51.227 17.3931L35.2271 33.3931M31.6715 17.3931H27.7604C24.7734 17.3931 23.28 17.3931 22.1391 17.9744C21.1356 18.4857 20.3197 19.3016 19.8083 20.3051C19.2271 21.446 19.2271 22.9395 19.2271 25.9264V40.8597C19.2271 43.8467 19.2271 45.3402 19.8083 46.481C20.3197 47.4845 21.1356 48.3004 22.1391 48.8118C23.28 49.3931 24.7734 49.3931 27.7604 49.3931H42.6937C45.6807 49.3931 47.1741 49.3931 48.315 48.8118C49.3185 48.3004 50.1344 47.4845 50.6458 46.481C51.2271 45.3402 51.2271 43.8467 51.2271 40.8597V36.9486" stroke="#1877F2" stroke-width="2" stroke-linecap="round" stroke-linejoin="round"/>
</svg>
