<svg width="71" height="67" viewBox="0 0 71 67" fill="none" xmlns="http://www.w3.org/2000/svg">
<rect x="1.05518" y="0.893066" width="69" height="65" rx="6.5" fill="white"/>
<rect x="1.05518" y="0.893066" width="69" height="65" rx="6.5" stroke="#1877F2"/>
<path d="M41.1441 19.8001V17.4014M47.4438 21.4963L49.14 19.8001M49.1564 27.796H51.5552M51.4598 34.9923C50.6575 43.0735 43.8393 49.385 35.547 49.385C26.7149 49.385 19.5552 42.2252 19.5552 33.3932C19.5552 25.1009 25.8666 18.2827 33.9478 17.4803M35.547 26.9964H41.9437V33.3932M41.3355 26.9964C37.5705 32.3179 31.3673 35.7919 24.3527 35.7919C22.7489 35.7919 21.1875 35.6103 19.6879 35.2665" stroke="#1877F2" stroke-width="2" stroke-linecap="round" stroke-linejoin="round"/>
</svg>
