<svg width="71" height="67" viewBox="0 0 71 67" fill="none" xmlns="http://www.w3.org/2000/svg">
<rect x="1.21875" y="0.893066" width="69" height="65" rx="6.5" fill="#010004"/>
<rect x="1.21875" y="0.893066" width="69" height="65" rx="6.5" stroke="#1877F2"/>
<path d="M37.3353 26.1749L32.4853 31.0249L38.952 34.2583L34.1019 39.1083M48.6521 33.45C48.6521 41.3854 39.9964 47.1568 36.847 48.9942C36.4891 49.203 36.3102 49.3074 36.0576 49.3615C35.8616 49.4036 35.5756 49.4036 35.3796 49.3615C35.1271 49.3074 34.9481 49.203 34.5902 48.9942C31.4408 47.1568 22.7852 41.3854 22.7852 33.45V25.7183C22.7852 24.4258 22.7852 23.7795 22.9966 23.224C23.1833 22.7332 23.4868 22.2953 23.8807 21.9481C24.3267 21.5551 24.9318 21.3282 26.142 20.8743L34.8104 17.6237C35.1465 17.4977 35.3145 17.4347 35.4874 17.4097C35.6408 17.3875 35.7965 17.3875 35.9498 17.4097C36.1227 17.4347 36.2908 17.4977 36.6269 17.6237L45.2952 20.8743C46.5055 21.3282 47.1106 21.5551 47.5565 21.9481C47.9505 22.2953 48.2539 22.7332 48.4407 23.224C48.6521 23.7795 48.6521 24.4258 48.6521 25.7183V33.45Z" stroke="#1877F2" stroke-width="2" stroke-linecap="round" stroke-linejoin="round"/>
</svg>
