<svg width="71" height="67" viewBox="0 0 71 67" fill="none" xmlns="http://www.w3.org/2000/svg">
<rect x="1.38281" y="0.893066" width="69" height="65" rx="6.5" fill="#010004"/>
<rect x="1.38281" y="0.893066" width="69" height="65" rx="6.5" stroke="#1877F2"/>
<path d="M43.9075 29.3807V23.924C43.9075 23.0251 43.9075 22.5757 43.7326 22.2324C43.5787 21.9304 43.3332 21.6849 43.0312 21.531C42.6879 21.3561 42.2385 21.3561 41.3396 21.3561H21.4385M37.4878 37.4054V42.8622C37.4878 43.761 37.4878 44.2104 37.3129 44.5537C37.159 44.8557 36.9135 45.1013 36.6115 45.2551C36.2682 45.4301 35.8187 45.4301 34.9199 45.4301H21.4385M21.4385 17.3438L21.4385 49.4424M21.4385 37.4054L47.7594 37.4054C48.6582 37.4054 49.1076 37.4054 49.4509 37.2305C49.7529 37.0766 49.9984 36.8311 50.1523 36.5291C50.3272 36.1858 50.3272 35.7363 50.3272 34.8375V31.9486C50.3272 31.0498 50.3272 30.6004 50.1523 30.257C49.9984 29.9551 49.7529 29.7095 49.4509 29.5557C49.1076 29.3807 48.6582 29.3807 47.7594 29.3807L21.4385 29.3807L21.4385 37.4054Z" stroke="#1877F2" stroke-width="2" stroke-linecap="round" stroke-linejoin="round"/>
</svg>
