<svg width="71" height="67" viewBox="0 0 71 67" fill="none" xmlns="http://www.w3.org/2000/svg">
<rect x="0.727051" y="0.893066" width="69" height="65" rx="6.5" fill="white"/>
<rect x="0.727051" y="0.893066" width="69" height="65" rx="6.5" stroke="#1877F2"/>
<path d="M35.2271 38.9932H28.0271C25.7942 38.9932 24.6777 38.9932 23.7692 39.2687C21.7238 39.8892 20.1231 41.4899 19.5026 43.5353C19.2271 44.4438 19.2271 45.5603 19.2271 47.7932M41.6271 42.9932L44.8271 46.1932L51.2271 39.7932M39.2271 26.1932C39.2271 30.1696 36.0035 33.3932 32.0271 33.3932C28.0506 33.3932 24.8271 30.1696 24.8271 26.1932C24.8271 22.2167 28.0506 18.9932 32.0271 18.9932C36.0035 18.9932 39.2271 22.2167 39.2271 26.1932Z" stroke="#1877F2" stroke-width="2" stroke-linecap="round" stroke-linejoin="round"/>
</svg>
