<svg width="71" height="67" viewBox="0 0 71 67" fill="none" xmlns="http://www.w3.org/2000/svg">
<rect x="0.562988" y="0.893066" width="69" height="65" rx="6.5" fill="white"/>
<rect x="0.562988" y="0.893066" width="69" height="65" rx="6.5" stroke="#1877F2"/>
<path d="M48.5367 47.7087V35.9193M35.063 47.7087V30.8666M21.5893 47.7087L21.5893 40.9719M37.4321 22.4919L46.1369 25.7562M33.0399 23.1208L23.6107 30.1926M50.323 24.8697C51.3096 25.8563 51.3096 27.4559 50.323 28.4425C49.3365 29.4291 47.7369 29.4291 46.7503 28.4425C45.7637 27.4559 45.7637 25.8563 46.7503 24.8697C47.7369 23.8831 49.3365 23.8831 50.323 24.8697ZM23.3757 29.9224C24.3623 30.9089 24.3623 32.5085 23.3757 33.4951C22.3891 34.4817 20.7895 34.4817 19.8029 33.4951C18.8163 32.5085 18.8163 30.9089 19.8029 29.9224C20.7895 28.9358 22.3891 28.9358 23.3757 29.9224ZM36.8494 19.8171C37.836 20.8037 37.836 22.4033 36.8494 23.3898C35.8628 24.3764 34.2632 24.3764 33.2766 23.3898C32.29 22.4033 32.29 20.8037 33.2766 19.8171C34.2632 18.8305 35.8628 18.8305 36.8494 19.8171Z" stroke="#1877F2" stroke-width="2" stroke-linecap="round" stroke-linejoin="round"/>
</svg>
