<svg width="71" height="67" viewBox="0 0 71 67" fill="none" xmlns="http://www.w3.org/2000/svg">
<rect x="0.891113" y="0.893066" width="69" height="65" rx="6.5" fill="white"/>
<rect x="0.891113" y="0.893066" width="69" height="65" rx="6.5" stroke="#1877F2"/>
<path d="M28.28 17.3931H27.9244C24.9375 17.3931 23.444 17.3931 22.3032 17.9744C21.2996 18.4857 20.4837 19.3016 19.9724 20.3051C19.3911 21.446 19.3911 22.9395 19.3911 25.9264V26.282M28.28 49.3931H27.9244C24.9375 49.3931 23.444 49.3931 22.3032 48.8118C21.2996 48.3004 20.4837 47.4845 19.9724 46.481C19.3911 45.3402 19.3911 43.8467 19.3911 40.8597V40.5042M51.3911 26.282V25.9264C51.3911 22.9395 51.3911 21.446 50.8098 20.3051C50.2985 19.3016 49.4826 18.4857 48.4791 17.9744C47.3382 17.3931 45.8447 17.3931 42.8578 17.3931H42.5022M51.3911 40.5042V40.8597C51.3911 43.8467 51.3911 45.3402 50.8098 46.481C50.2985 47.4845 49.4826 48.3004 48.4791 48.8118C47.3382 49.3931 45.8447 49.3931 42.8578 49.3931H42.5022M27.3911 26.282V28.9486M43.3911 26.282V28.9486M33.6133 34.4599C35.0356 34.4599 36.28 33.2155 36.28 31.7932V26.282M41.0803 39.0819C37.8803 42.2819 32.7248 42.2819 29.5248 39.0819" stroke="#1877F2" stroke-width="2" stroke-linecap="round" stroke-linejoin="round"/>
</svg>
