<svg width="71" height="67" viewBox="0 0 71 67" fill="none" xmlns="http://www.w3.org/2000/svg">
<rect x="1.00049" y="0.893066" width="69" height="65" rx="6.5" fill="white"/>
<rect x="1.00049" y="0.893066" width="69" height="65" rx="6.5" stroke="#1877F2"/>
<path d="M55.5005 43.3931L39.7632 27.6558C38.9712 26.8638 38.5752 26.4678 38.1185 26.3194C37.7168 26.1889 37.2841 26.1889 36.8825 26.3194C36.4258 26.4678 36.0298 26.8638 35.2377 27.6558L29.7632 33.1303C28.9712 33.9224 28.5752 34.3184 28.1185 34.4668C27.7168 34.5973 27.2841 34.5973 26.8825 34.4668C26.4258 34.3184 26.0298 33.9224 25.2377 33.1303L15.5005 23.3931M55.5005 43.3931H41.5005M55.5005 43.3931V29.3931" stroke="#1877F2" stroke-width="2" stroke-linecap="round" stroke-linejoin="round"/>
</svg>
