<svg width="70" height="67" viewBox="0 0 70 67" fill="none" xmlns="http://www.w3.org/2000/svg">
<rect x="0.5" y="0.893066" width="69" height="65" rx="6.5" fill="white"/>
<rect x="0.5" y="0.893066" width="69" height="65" rx="6.5" stroke="#1877F2"/>
<path d="M46.9999 34.1931V25.0731C46.9999 22.3848 46.9999 21.0407 46.4767 20.0139C46.0165 19.1107 45.2822 18.3764 44.3791 17.9162C43.3523 17.3931 42.0082 17.3931 39.3199 17.3931H29.0799C26.3917 17.3931 25.0475 17.3931 24.0207 17.9162C23.1176 18.3764 22.3833 19.1107 21.9231 20.0139C21.3999 21.0407 21.3999 22.3848 21.3999 25.0731V41.7131C21.3999 44.4013 21.3999 45.7454 21.9231 46.7722C22.3833 47.6754 23.1176 48.4097 24.0207 48.8699C25.0475 49.3931 26.3917 49.3931 29.0799 49.3931H34.1999M37.3999 31.7931H27.7999M30.9999 38.1931H27.7999M40.5999 25.3931H27.7999M38.1999 44.5931L41.3999 47.7931L48.5999 40.5931" stroke="#1877F2" stroke-width="2" stroke-linecap="round" stroke-linejoin="round"/>
</svg>
