<svg width="71" height="67" viewBox="0 0 71 67" fill="none" xmlns="http://www.w3.org/2000/svg">
<rect x="0.828125" y="0.893066" width="69" height="65" rx="6.5" fill="white"/>
<rect x="0.828125" y="0.893066" width="69" height="65" rx="6.5" stroke="#1877F2"/>
<path d="M35.3281 23.7931V49.3931M35.3281 23.7931H29.671C28.8374 23.7931 28.038 23.4559 27.4486 22.8558C26.8592 22.2557 26.5281 21.4418 26.5281 20.5931C26.5281 19.7444 26.8592 18.9304 27.4486 18.3303C28.038 17.7302 28.8374 17.3931 29.671 17.3931C34.071 17.3931 35.3281 23.7931 35.3281 23.7931ZM35.3281 23.7931H40.9853C41.8188 23.7931 42.6182 23.4559 43.2076 22.8558C43.797 22.2557 44.1281 21.4418 44.1281 20.5931C44.1281 19.7444 43.797 18.9304 43.2076 18.3303C42.6182 17.7302 41.8188 17.3931 40.9853 17.3931C36.5853 17.3931 35.3281 23.7931 35.3281 23.7931ZM48.1281 31.7931V44.2731C48.1281 46.0652 48.1281 46.9613 47.7793 47.6458C47.4726 48.248 46.983 48.7375 46.3809 49.0443C45.6964 49.3931 44.8003 49.3931 43.0081 49.3931L27.6481 49.3931C25.856 49.3931 24.9599 49.3931 24.2754 49.0443C23.6732 48.7375 23.1837 48.248 22.8769 47.6458C22.5281 46.9613 22.5281 46.0652 22.5281 44.2731V31.7931M19.3281 26.3531L19.3281 29.2331C19.3281 30.1291 19.3281 30.5772 19.5025 30.9195C19.6559 31.2205 19.9007 31.4653 20.2017 31.6187C20.544 31.7931 20.992 31.7931 21.8881 31.7931L48.7681 31.7931C49.6642 31.7931 50.1123 31.7931 50.4545 31.6187C50.7556 31.4653 51.0003 31.2205 51.1537 30.9195C51.3281 30.5772 51.3281 30.1292 51.3281 29.2331V26.3531C51.3281 25.457 51.3281 25.0089 51.1537 24.6667C51.0003 24.3656 50.7556 24.1209 50.4545 23.9675C50.1123 23.7931 49.6642 23.7931 48.7681 23.7931L21.8881 23.7931C20.992 23.7931 20.544 23.7931 20.2017 23.9675C19.9007 24.1209 19.6559 24.3656 19.5025 24.6667C19.3281 25.0089 19.3281 25.457 19.3281 26.3531Z" stroke="#1877F2" stroke-width="2" stroke-linecap="round" stroke-linejoin="round"/>
</svg>
