<svg width="71" height="67" viewBox="0 0 71 67" fill="none" xmlns="http://www.w3.org/2000/svg">
<rect x="0.664062" y="0.893066" width="69" height="65" rx="6.5" fill="white"/>
<rect x="0.664062" y="0.893066" width="69" height="65" rx="6.5" stroke="#1877F2"/>
<path d="M38.3643 17.8243V24.4332C38.3643 25.3293 38.3643 25.7773 38.5386 26.1196C38.692 26.4206 38.9368 26.6654 39.2379 26.8188C39.5801 26.9932 40.0282 26.9932 40.9243 26.9932H47.5331M28.7643 38.1931V42.9931M41.5643 34.9931V42.9931M35.1643 30.9931V42.9931M47.9643 30.1742V41.7131C47.9643 44.4013 47.9643 45.7454 47.4411 46.7722C46.9809 47.6754 46.2466 48.4097 45.3434 48.8699C44.3166 49.3931 42.9725 49.3931 40.2843 49.3931H30.0443C27.356 49.3931 26.0119 49.3931 24.9851 48.8699C24.0819 48.4097 23.3476 47.6754 22.8874 46.7722C22.3643 45.7454 22.3643 44.4013 22.3643 41.7131V25.0731C22.3643 22.3848 22.3643 21.0407 22.8874 20.0139C23.3476 19.1107 24.0819 18.3764 24.9851 17.9162C26.0119 17.3931 27.356 17.3931 30.0443 17.3931H35.1831C36.3571 17.3931 36.9441 17.3931 37.4966 17.5257C37.9863 17.6433 38.4546 17.8372 38.884 18.1004C39.3684 18.3972 39.7835 18.8123 40.6137 19.6425L45.7148 24.7436C46.545 25.5738 46.9601 25.9889 47.2569 26.4733C47.5201 26.9028 47.714 27.371 47.8316 27.8608C47.9643 28.4132 47.9643 29.0002 47.9643 30.1742Z" stroke="#1877F2" stroke-width="2" stroke-linecap="round" stroke-linejoin="round"/>
</svg>
