<svg width="71" height="67" viewBox="0 0 71 67" fill="none" xmlns="http://www.w3.org/2000/svg">
<rect x="0.828613" y="0.893066" width="69" height="65" rx="6.5" fill="white"/>
<rect x="0.828613" y="0.893066" width="69" height="65" rx="6.5" stroke="#1877F2"/>
<path d="M25.2836 46.3081L25.2836 37.6981M25.2836 37.6981C26.8686 37.6981 28.1536 36.4131 28.1536 34.8281C28.1536 33.243 26.8686 31.9581 25.2836 31.9581C23.6985 31.9581 22.4136 33.243 22.4136 34.8281C22.4136 36.4131 23.6985 37.6981 25.2836 37.6981ZM25.2836 26.218V20.478M35.3286 46.3081V37.6981M35.3286 26.218V20.478M35.3286 26.218C33.7436 26.218 32.4586 27.503 32.4586 29.0881C32.4586 30.6731 33.7436 31.9581 35.3286 31.9581C36.9137 31.9581 38.1986 30.6731 38.1986 29.0881C38.1986 27.503 36.9137 26.218 35.3286 26.218ZM45.3736 46.3081V40.5681M45.3736 40.5681C46.9587 40.5681 48.2437 39.2831 48.2437 37.6981C48.2437 36.113 46.9587 34.8281 45.3736 34.8281C43.7886 34.8281 42.5036 36.113 42.5036 37.6981C42.5036 39.2831 43.7886 40.5681 45.3736 40.5681ZM45.3736 29.0881V20.478" stroke="#1877F2" stroke-width="2" stroke-linecap="round" stroke-linejoin="round"/>
</svg>
