<svg width="71" height="67" viewBox="0 0 71 67" fill="none" xmlns="http://www.w3.org/2000/svg">
<rect x="0.664551" y="0.893066" width="69" height="65" rx="6.5" fill="white"/>
<rect x="0.664551" y="0.893066" width="69" height="65" rx="6.5" stroke="#1877F2"/>
<path d="M29.9358 38.1493C30.5215 39.2647 31.6911 40.0254 33.0383 40.0254H37.0406C39.1129 40.0254 40.7928 38.3455 40.7928 36.2732C40.7928 34.201 39.1129 32.521 37.0406 32.521H33.2885C31.2162 32.521 29.5363 30.8411 29.5363 28.7688C29.5363 26.6966 31.2162 25.0167 33.2885 25.0167H37.2908C38.638 25.0167 39.8076 25.7774 40.3933 26.8927M35.1646 22.2025V25.0167M35.1646 40.0254V42.8396M50.1733 33.4591C50.1733 42.6678 40.1288 49.3654 36.474 51.4976C36.0587 51.7399 35.851 51.861 35.5579 51.9239C35.3305 51.9727 34.9986 51.9727 34.7712 51.9239C34.4781 51.861 34.2704 51.7399 33.8551 51.4976C30.2003 49.3654 20.1558 42.6678 20.1558 33.4591V24.4868C20.1558 22.9869 20.1558 22.2369 20.4011 21.5922C20.6178 21.0227 20.97 20.5145 21.4271 20.1116C21.9446 19.6556 22.6468 19.3922 24.0513 18.8656L34.1106 15.0934C34.5006 14.9471 34.6956 14.874 34.8962 14.845C35.0742 14.8193 35.2549 14.8193 35.4329 14.845C35.6335 14.874 35.8285 14.9471 36.2185 15.0934L46.2778 18.8656C47.6823 19.3922 48.3845 19.6556 48.902 20.1116C49.3591 20.5145 49.7113 21.0227 49.928 21.5922C50.1733 22.2369 50.1733 22.9869 50.1733 24.4868V33.4591Z" stroke="#1877F2" stroke-width="2" stroke-linecap="round" stroke-linejoin="round"/>
</svg>
