<svg width="71" height="67" viewBox="0 0 71 67" fill="none" xmlns="http://www.w3.org/2000/svg">
<rect x="0.992676" y="0.893066" width="69" height="65" rx="6.5" fill="#010004"/>
<rect x="0.992676" y="0.893066" width="69" height="65" rx="6.5" stroke="#1877F2"/>
<path d="M19.7817 17.6821L22.9239 20.8243M51.2036 17.6821L48.0614 20.8243M51.2036 49.104L48.0614 45.9618M19.7817 49.104L22.9239 45.9618M19.7817 39.6774H22.1384M29.2083 17.6821V20.0388M51.2036 27.1087H48.847M41.7771 49.104V46.7474M44.9192 39.6774H50.4181M41.7771 17.6821V23.9665M19.7817 27.1087H26.0661M29.2083 49.104V42.8196M41.7771 33.3931C41.7771 36.8638 38.9634 39.6774 35.4927 39.6774C32.0219 39.6774 29.2083 36.8638 29.2083 33.3931C29.2083 29.9223 32.0219 27.1087 35.4927 27.1087C38.9634 27.1087 41.7771 29.9223 41.7771 33.3931Z" stroke="#1877F2" stroke-width="2" stroke-linecap="round" stroke-linejoin="round"/>
</svg>
