<svg width="71" height="67" viewBox="0 0 71 67" fill="none" xmlns="http://www.w3.org/2000/svg">
<rect x="0.664062" y="0.893066" width="69" height="65" rx="6.5" fill="white"/>
<rect x="0.664062" y="0.893066" width="69" height="65" rx="6.5" stroke="#1877F2"/>
<path d="M40.7558 19.7931V17.3931M47.0587 21.4901L48.7558 19.7931M48.7722 27.7931H51.1722M51.0768 34.9931C50.274 43.0784 43.4523 49.3931 35.1558 49.3931C26.3192 49.3931 19.1558 42.2296 19.1558 33.3931C19.1558 25.0965 25.4704 18.2748 33.5558 17.4721M35.1558 26.9931H41.5558V33.3931M40.9473 26.9931C37.1803 32.3172 30.9739 35.7931 23.9558 35.7931C22.3511 35.7931 20.7889 35.6114 19.2886 35.2674" stroke="#1877F2" stroke-width="2" stroke-linecap="round" stroke-linejoin="round"/>
</svg>
