<svg width="70" height="67" viewBox="0 0 70 67" fill="none" xmlns="http://www.w3.org/2000/svg">
<rect x="0.5" y="0.893066" width="69" height="65" rx="6.5" fill="white"/>
<rect x="0.5" y="0.893066" width="69" height="65" rx="6.5" stroke="#1877F2"/>
<path d="M51 33.3931C51 42.2296 43.8366 49.3931 35 49.3931M51 33.3931C51 24.5565 43.8366 17.3931 35 17.3931M51 33.3931H47.8M35 49.3931C26.1634 49.3931 19 42.2296 19 33.3931M35 49.3931V46.1931M19 33.3931C19 24.5565 26.1634 17.3931 35 17.3931M19 33.3931H22.2M35 17.3931V20.5931M46.3137 44.7068L44.051 42.444M25.949 24.3421L23.6863 22.0794M44.051 24.3421L46.3137 22.0794M23.6863 44.7068L25.949 42.444M28.6 33.3931L32.6 30.9931L35 26.9931L37.4 30.9931L41.4 33.3931L37.4 35.7931L35 39.7931L32.6 35.7931L28.6 33.3931Z" stroke="#1877F2" stroke-width="2" stroke-linecap="round" stroke-linejoin="round"/>
</svg>
