<svg width="71" height="67" viewBox="0 0 71 67" fill="none" xmlns="http://www.w3.org/2000/svg">
<rect x="0.9375" y="0.893066" width="69" height="65" rx="6.5" fill="white"/>
<rect x="0.9375" y="0.893066" width="69" height="65" rx="6.5" stroke="#1877F2"/>
<path d="M44.3264 28.0597L34.6654 37.7207C34.3134 38.0728 34.1374 38.2488 33.9344 38.3147C33.7559 38.3727 33.5636 38.3727 33.385 38.3147C33.1821 38.2488 33.0061 38.0728 32.6541 37.7207L29.3321 34.3987C28.98 34.0467 28.804 33.8707 28.6011 33.8048C28.4225 33.7468 28.2302 33.7468 28.0517 33.8048C27.8487 33.8707 27.6727 34.0467 27.3207 34.3987L19.4375 42.282M44.3264 28.0597H37.2153M44.3264 28.0597V35.1708M27.9708 49.3931H42.9042C45.8911 49.3931 47.3846 49.3931 48.5254 48.8118C49.529 48.3004 50.3449 47.4845 50.8562 46.481C51.4375 45.3402 51.4375 43.8467 51.4375 40.8597V25.9264C51.4375 22.9395 51.4375 21.446 50.8562 20.3051C50.3449 19.3016 49.529 18.4857 48.5254 17.9744C47.3846 17.3931 45.8911 17.3931 42.9042 17.3931H27.9708C24.9839 17.3931 23.4904 17.3931 22.3496 17.9744C21.346 18.4857 20.5301 19.3016 20.0188 20.3051C19.4375 21.446 19.4375 22.9395 19.4375 25.9264V40.8597C19.4375 43.8467 19.4375 45.3402 20.0188 46.481C20.5301 47.4845 21.346 48.3004 22.3496 48.8118C23.4904 49.3931 24.9839 49.3931 27.9708 49.3931Z" stroke="#1877F2" stroke-width="2" stroke-linecap="round" stroke-linejoin="round"/>
</svg>
