<svg width="71" height="67" viewBox="0 0 71 67" fill="none" xmlns="http://www.w3.org/2000/svg">
<rect x="0.828125" y="0.893066" width="69" height="65" rx="6.5" fill="white"/>
<rect x="0.828125" y="0.893066" width="69" height="65" rx="6.5" stroke="#1877F2"/>
<path d="M35.3281 39.7932V47.7932M44.9281 47.7932L38.6059 42.5246C37.4398 41.5529 36.8568 41.0671 36.206 40.8814C35.6322 40.7177 35.0241 40.7177 34.4503 40.8814C33.7995 41.0671 33.2164 41.5529 32.0504 42.5246L25.7281 47.7932M28.9281 31.7932V33.3932M35.3281 28.5932V33.3932M41.7281 25.3932V33.3932M51.3281 18.9932H19.3281M20.9281 18.9932H49.7281V32.1132C49.7281 34.8014 49.7281 36.1455 49.205 37.1723C48.7448 38.0755 48.0105 38.8098 47.1073 39.27C46.0805 39.7932 44.7364 39.7932 42.0481 39.7932H28.6081C25.9199 39.7932 24.5757 39.7932 23.549 39.27C22.6458 38.8098 21.9115 38.0755 21.4513 37.1723C20.9281 36.1455 20.9281 34.8014 20.9281 32.1132V18.9932Z" stroke="#1877F2" stroke-width="2" stroke-linecap="round" stroke-linejoin="round"/>
</svg>
