<svg width="71" height="67" viewBox="0 0 71 67" fill="none" xmlns="http://www.w3.org/2000/svg">
<rect x="0.65625" y="0.893066" width="69" height="65" rx="6.5" fill="white"/>
<rect x="0.65625" y="0.893066" width="69" height="65" rx="6.5" stroke="#1877F2"/>
<path d="M51.1563 30.1933V25.7133C51.1563 23.9211 51.1563 23.025 50.8075 22.3405C50.5007 21.7384 50.0111 21.2488 49.409 20.942C48.7245 20.5933 47.8284 20.5933 46.0362 20.5933H24.2763C22.4841 20.5933 21.588 20.5933 20.9035 20.942C20.3014 21.2488 19.8118 21.7384 19.505 22.3405C19.1562 23.025 19.1562 23.9211 19.1562 25.7133V31.4733C19.1562 33.2654 19.1562 34.1615 19.505 34.846C19.8118 35.4482 20.3014 35.9377 20.9035 36.2445C21.588 36.5933 22.4841 36.5933 24.2762 36.5933H33.5563M35.1563 28.5933H35.1643M43.1563 28.5933H43.1643M27.1563 28.5933H27.1643M46.7563 39.7933V36.9933C46.7563 35.4469 45.5026 34.1933 43.9563 34.1933C42.4099 34.1933 41.1563 35.4469 41.1563 36.9933V39.7933M35.5563 28.5933C35.5563 28.8142 35.3772 28.9933 35.1563 28.9933C34.9353 28.9933 34.7563 28.8142 34.7563 28.5933C34.7563 28.3723 34.9353 28.1933 35.1563 28.1933C35.3772 28.1933 35.5563 28.3723 35.5563 28.5933ZM43.5563 28.5933C43.5563 28.8142 43.3772 28.9933 43.1563 28.9933C42.9353 28.9933 42.7563 28.8142 42.7563 28.5933C42.7563 28.3723 42.9353 28.1933 43.1563 28.1933C43.3772 28.1933 43.5563 28.3723 43.5563 28.5933ZM27.5563 28.5933C27.5563 28.8142 27.3772 28.9933 27.1563 28.9933C26.9353 28.9933 26.7563 28.8142 26.7563 28.5933C26.7563 28.3723 26.9353 28.1933 27.1563 28.1933C27.3772 28.1933 27.5563 28.3723 27.5563 28.5933ZM40.9163 46.1933H46.9962C47.8923 46.1933 48.3404 46.1933 48.6826 46.0189C48.9837 45.8655 49.2285 45.6207 49.3819 45.3196C49.5563 44.9774 49.5563 44.5293 49.5563 43.6333V42.3533C49.5563 41.4572 49.5563 41.0091 49.3819 40.6669C49.2285 40.3658 48.9837 40.121 48.6826 39.9677C48.3404 39.7933 47.8923 39.7933 46.9962 39.7933H40.9163C40.0202 39.7933 39.5721 39.7933 39.2299 39.9677C38.9288 40.121 38.684 40.3658 38.5306 40.6669C38.3563 41.0091 38.3563 41.4572 38.3563 42.3533V43.6333C38.3563 44.5293 38.3563 44.9774 38.5306 45.3196C38.684 45.6207 38.9288 45.8655 39.2299 46.0189C39.5721 46.1933 40.0202 46.1933 40.9163 46.1933Z" stroke="#1877F2" stroke-width="2" stroke-linecap="round" stroke-linejoin="round"/>
</svg>
