<svg width="71" height="67" viewBox="0 0 71 67" fill="none" xmlns="http://www.w3.org/2000/svg">
<rect x="1.38281" y="0.893066" width="69" height="65" rx="6.5" fill="white"/>
<rect x="1.38281" y="0.893066" width="69" height="65" rx="6.5" stroke="#1877F2"/>
<path d="M20.3117 34.5521C20.0903 34.2016 19.9797 34.0264 19.9177 33.7561C19.8712 33.553 19.8712 33.2328 19.9177 33.0298C19.9797 32.7595 20.0903 32.5843 20.3117 32.2338C22.1408 29.3375 27.5855 22.0156 35.8828 22.0156C44.1801 22.0156 49.6248 29.3375 51.4539 32.2338C51.6753 32.5843 51.786 32.7595 51.8479 33.0298C51.8944 33.2328 51.8944 33.553 51.8479 33.7561C51.786 34.0264 51.6753 34.2016 51.4539 34.5521C49.6248 37.4484 44.1801 44.7702 35.8828 44.7702C27.5855 44.7702 22.1409 37.4484 20.3117 34.5521Z" stroke="#1877F2" stroke-width="2" stroke-linecap="round" stroke-linejoin="round"/>
<path d="M35.8828 38.2689C38.5757 38.2689 40.7588 36.0859 40.7588 33.3929C40.7588 30.7 38.5757 28.5169 35.8828 28.5169C33.1899 28.5169 31.0068 30.7 31.0068 33.3929C31.0068 36.0859 33.1899 38.2689 35.8828 38.2689Z" stroke="#1877F2" stroke-width="2" stroke-linecap="round" stroke-linejoin="round"/>
</svg>
