<svg width="71" height="67" viewBox="0 0 71 67" fill="none" xmlns="http://www.w3.org/2000/svg">
<rect x="1.21875" y="0.893066" width="69" height="65" rx="6.5" fill="white"/>
<rect x="1.21875" y="0.893066" width="69" height="65" rx="6.5" stroke="#1877F2"/>
<path d="M36.5609 19.0773H43.6345C46.4643 19.0773 47.8791 19.0773 48.96 19.628C49.9107 20.1124 50.6836 20.8853 51.168 21.8361C51.7188 22.9169 51.7188 24.3317 51.7188 27.1615V41.3089C51.7188 44.1386 51.7188 45.5535 51.168 46.6343C50.6836 47.585 49.9107 48.3579 48.96 48.8424C47.8791 49.3931 46.4643 49.3931 43.6345 49.3931H29.4872C26.6574 49.3931 25.2426 49.3931 24.1617 48.8424C23.211 48.3579 22.4381 47.585 21.9537 46.6343C21.403 45.5535 21.403 44.1386 21.403 41.3089V34.2352M29.824 35.9194V42.6562M43.2977 32.551V42.6562M36.5609 25.8141V42.6562M19.7188 22.4457L24.7714 17.3931M24.7714 17.3931L29.824 22.4457M24.7714 17.3931L24.7714 27.4983" stroke="#1877F2" stroke-width="2" stroke-linecap="round" stroke-linejoin="round"/>
</svg>
