<svg width="71" height="67" viewBox="0 0 71 67" fill="none" xmlns="http://www.w3.org/2000/svg">
<rect x="0.546875" y="0.893066" width="69" height="65" rx="6.5" fill="white"/>
<rect x="0.546875" y="0.893066" width="69" height="65" rx="6.5" stroke="#1877F2"/>
<path d="M41.4469 42.9932L46.2469 38.1932M46.2469 38.1932L51.0469 42.9932M46.2469 38.1932V47.7932M40.6469 19.4584C42.9923 20.4078 44.6469 22.7073 44.6469 25.3932C44.6469 28.0791 42.9923 30.3785 40.6469 31.328M35.0469 38.1932H28.6469C25.6648 38.1932 24.1738 38.1932 22.9977 38.6803C21.4295 39.3299 20.1836 40.5758 19.534 42.144C19.0469 43.3201 19.0469 44.8111 19.0469 47.7932M37.4469 25.3932C37.4469 28.9278 34.5815 31.7932 31.0469 31.7932C27.5123 31.7932 24.6469 28.9278 24.6469 25.3932C24.6469 21.8585 27.5123 18.9932 31.0469 18.9932C34.5815 18.9932 37.4469 21.8585 37.4469 25.3932Z" stroke="#1877F2" stroke-width="2" stroke-linecap="round" stroke-linejoin="round"/>
</svg>
