<svg width="71" height="67" viewBox="0 0 71 67" fill="none" xmlns="http://www.w3.org/2000/svg">
<rect x="0.828125" y="0.893066" width="69" height="65" rx="6.5" fill="white"/>
<rect x="0.828125" y="0.893066" width="69" height="65" rx="6.5" stroke="#1877F2"/>
<path d="M51.3281 25.3931L38.7383 37.9829C38.1047 38.6165 37.7879 38.9333 37.4226 39.052C37.1012 39.1564 36.755 39.1564 36.4337 39.052C36.0684 38.9333 35.7516 38.6165 35.1179 37.9829L30.7383 33.6033C30.1047 32.9696 29.7879 32.6528 29.4226 32.5341C29.1012 32.4297 28.755 32.4297 28.4337 32.5341C28.0684 32.6528 27.7516 32.9696 27.1179 33.6033L19.3281 41.3931M51.3281 25.3931H40.1281M51.3281 25.3931V36.5931" stroke="#1877F2" stroke-width="2" stroke-linecap="round" stroke-linejoin="round"/>
</svg>
