<svg width="70" height="67" viewBox="0 0 70 67" fill="none" xmlns="http://www.w3.org/2000/svg">
<rect x="0.5" y="0.893066" width="69" height="65" rx="6.5" fill="white"/>
<rect x="0.5" y="0.893066" width="69" height="65" rx="6.5" stroke="#1877F2"/>
<path d="M30.3642 19.8282V17.3931M23.9688 22.3619L22.2469 20.64M23.9688 35.251L22.2469 36.973M36.858 22.3619L38.5799 20.64M21.4352 28.7572H19M41.5083 40.4291L37.4631 47.9416C37.001 48.7998 36.7699 49.229 36.4919 49.3375C36.2506 49.4317 35.9789 49.4051 35.7605 49.2659C35.5088 49.1055 35.3653 48.6397 35.0784 47.7082L29.4634 29.4801C29.229 28.7191 29.1118 28.3386 29.2061 28.0816C29.2883 27.8578 29.4647 27.6814 29.6885 27.5992C29.9455 27.5049 30.326 27.6221 31.087 27.8565L49.3151 33.4715C50.2466 33.7584 50.7124 33.9019 50.8728 34.1536C51.0119 34.372 51.0385 34.6437 50.9444 34.885C50.8358 35.163 50.4067 35.3941 49.5485 35.8562L42.0361 39.9014C41.9085 39.97 41.8448 40.0044 41.789 40.0485C41.7394 40.0877 41.6946 40.1325 41.6554 40.182C41.6113 40.2378 41.577 40.3016 41.5083 40.4291Z" stroke="#1877F2" stroke-width="2" stroke-linecap="round" stroke-linejoin="round"/>
</svg>
