<svg width="71" height="67" viewBox="0 0 71 67" fill="none" xmlns="http://www.w3.org/2000/svg">
<rect x="0.664062" y="0.893066" width="69" height="65" rx="6.5" fill="white"/>
<rect x="0.664062" y="0.893066" width="69" height="65" rx="6.5" stroke="#1877F2"/>
<path d="M43.1642 29.3931V23.9531C43.1642 23.057 43.1642 22.6089 42.9898 22.2667C42.8364 21.9656 42.5916 21.7209 42.2905 21.5675C41.9483 21.3931 41.5002 21.3931 40.6042 21.3931H20.7642M36.7642 37.3931V42.8331C36.7642 43.7292 36.7642 44.1772 36.5898 44.5195C36.4364 44.8205 36.1916 45.0653 35.8905 45.2187C35.5483 45.3931 35.1002 45.3931 34.2042 45.3931H20.7642M20.7642 17.3931L20.7642 49.3931M20.7642 37.3931L47.0042 37.3931C47.9002 37.3931 48.3483 37.3931 48.6905 37.2187C48.9916 37.0653 49.2364 36.8205 49.3898 36.5195C49.5642 36.1772 49.5642 35.7292 49.5642 34.8331V31.9531C49.5642 31.057 49.5642 30.6089 49.3898 30.2667C49.2364 29.9656 48.9916 29.7209 48.6905 29.5675C48.3483 29.3931 47.9002 29.3931 47.0042 29.3931L20.7642 29.3931L20.7642 37.3931Z" stroke="#1877F2" stroke-width="2" stroke-linecap="round" stroke-linejoin="round"/>
</svg>
