<svg width="71" height="67" viewBox="0 0 71 67" fill="none" xmlns="http://www.w3.org/2000/svg">
<rect x="1.10205" y="0.893066" width="69" height="65" rx="6.5" fill="white"/>
<rect x="1.10205" y="0.893066" width="69" height="65" rx="6.5" stroke="#1877F2"/>
<path d="M19.8722 34.564C19.6486 34.21 19.5368 34.0329 19.4742 33.7599C19.4272 33.5548 19.4272 33.2313 19.4742 33.0262C19.5368 32.7532 19.6486 32.5762 19.8722 32.2221C21.72 29.2963 27.2201 21.8999 35.6019 21.8999C43.9837 21.8999 49.4838 29.2963 51.3316 32.2221C51.5552 32.5762 51.667 32.7532 51.7296 33.0262C51.7766 33.2313 51.7766 33.5548 51.7296 33.7599C51.667 34.0329 51.5552 34.21 51.3316 34.564C49.4838 37.4898 43.9837 44.8862 35.6019 44.8862C27.2201 44.8862 21.72 37.4898 19.8722 34.564Z" stroke="#1877F2" stroke-width="2" stroke-linecap="round" stroke-linejoin="round"/>
<path d="M35.6019 38.3187C38.3222 38.3187 40.5275 36.1134 40.5275 33.3931C40.5275 30.6727 38.3222 28.4674 35.6019 28.4674C32.8815 28.4674 30.6762 30.6727 30.6762 33.3931C30.6762 36.1134 32.8815 38.3187 35.6019 38.3187Z" stroke="#1877F2" stroke-width="2" stroke-linecap="round" stroke-linejoin="round"/>
</svg>
