<svg width="71" height="67" viewBox="0 0 71 67" fill="none" xmlns="http://www.w3.org/2000/svg">
<rect x="0.664551" y="0.893066" width="69" height="65" rx="6.5" fill="white"/>
<rect x="0.664551" y="0.893066" width="69" height="65" rx="6.5" stroke="#1877F2"/>
<path d="M42.647 36.7186H42.6636M20.1997 21.7537V45.0324C20.1997 46.869 21.6886 48.3579 23.5252 48.3579H46.8039C48.6405 48.3579 50.1294 46.869 50.1294 45.0324V28.4048C50.1294 26.5682 48.6405 25.0793 46.8039 25.0793L23.5252 25.0793C21.6886 25.0793 20.1997 23.5904 20.1997 21.7537ZM20.1997 21.7537C20.1997 19.9171 21.6886 18.4282 23.5252 18.4282H43.4784M43.4784 36.7186C43.4784 37.1777 43.1061 37.55 42.647 37.55C42.1878 37.55 41.8156 37.1777 41.8156 36.7186C41.8156 36.2594 42.1878 35.8872 42.647 35.8872C43.1061 35.8872 43.4784 36.2594 43.4784 36.7186Z" stroke="#1877F2" stroke-width="2" stroke-linecap="round" stroke-linejoin="round"/>
</svg>
