<svg width="71" height="67" viewBox="0 0 71 67" fill="none" xmlns="http://www.w3.org/2000/svg">
<rect x="0.992676" y="0.893066" width="69" height="65" rx="6.5" fill="white"/>
<rect x="0.992676" y="0.893066" width="69" height="65" rx="6.5" stroke="#1877F2"/>
<path d="M19.5762 28.6023H51.4091M32.1418 18.5498L28.791 28.6023L35.4927 47.8696L42.1943 28.6023L38.8435 18.5498M36.5223 47.4717L51.5318 29.4604C51.7862 29.1551 51.9133 29.0025 51.962 28.8321C52.0048 28.6819 52.0048 28.5227 51.962 28.3725C51.9133 28.2021 51.7862 28.0495 51.5318 27.7443L44.2716 19.0321C44.1239 18.8548 44.05 18.7662 43.9595 18.7024C43.8793 18.646 43.7898 18.6041 43.695 18.5786C43.5881 18.5498 43.4727 18.5498 43.242 18.5498H27.7433C27.5126 18.5498 27.3972 18.5498 27.2903 18.5786C27.1955 18.6041 27.106 18.646 27.0258 18.7024C26.9353 18.7662 26.8614 18.8548 26.7137 19.0321L19.4535 27.7442C19.1991 28.0495 19.072 28.2021 19.0233 28.3725C18.9805 28.5227 18.9805 28.6819 19.0233 28.8321C19.072 29.0025 19.1991 29.1551 19.4535 29.4604L34.463 47.4717C34.8166 47.8961 34.9934 48.1082 35.2051 48.1856C35.3908 48.2535 35.5945 48.2535 35.7802 48.1856C35.9919 48.1082 36.1687 47.8961 36.5223 47.4717Z" stroke="#1877F2" stroke-width="2" stroke-linecap="round" stroke-linejoin="round"/>
</svg>
