<svg width="71" height="67" viewBox="0 0 71 67" fill="none" xmlns="http://www.w3.org/2000/svg">
<rect x="0.828613" y="0.893066" width="69" height="65" rx="6.5" fill="white"/>
<rect x="0.828613" y="0.893066" width="69" height="65" rx="6.5" stroke="#1877F2"/>
<path d="M36.9792 21.8373C36.9792 23.6607 32.9142 25.1389 27.8997 25.1389C22.8853 25.1389 18.8203 23.6607 18.8203 21.8373M36.9792 21.8373C36.9792 20.0138 32.9142 18.5356 27.8997 18.5356C22.8853 18.5356 18.8203 20.0138 18.8203 21.8373M36.9792 21.8373V24.3135M18.8203 21.8373V41.6469C18.8203 43.4704 22.8853 44.9485 27.8997 44.9485M27.8997 31.7421C27.6215 31.7421 27.3462 31.7375 27.0743 31.7286C22.4467 31.577 18.8203 30.1627 18.8203 28.4405M27.8997 38.3453C22.8853 38.3453 18.8203 36.8671 18.8203 35.0437M51.8364 32.5675C51.8364 34.3909 47.7714 35.8691 42.757 35.8691C37.7426 35.8691 33.6776 34.3909 33.6776 32.5675M51.8364 32.5675C51.8364 30.7441 47.7714 29.2659 42.757 29.2659C37.7426 29.2659 33.6776 30.7441 33.6776 32.5675M51.8364 32.5675V44.9485C51.8364 46.772 47.7714 48.2501 42.757 48.2501C37.7426 48.2501 33.6776 46.772 33.6776 44.9485V32.5675M51.8364 38.758C51.8364 40.5814 47.7714 42.0596 42.757 42.0596C37.7426 42.0596 33.6776 40.5814 33.6776 38.758" stroke="#1877F2" stroke-width="2" stroke-linecap="round" stroke-linejoin="round"/>
</svg>
