<svg width="300" height="100" viewBox="0 0 300 100" fill="none" xmlns="http://www.w3.org/2000/svg">
<mask id="mask0_1311_212" style="mask-type:luminance" maskUnits="userSpaceOnUse" x="84" y="16" width="132" height="69">
<path d="M216 16H84V84.7172H216V16Z" fill="white"/>
</mask>
<g mask="url(#mask0_1311_212)">
<path d="M199.297 58.602C199.297 60.4741 198.883 62.0322 198.068 63.2341C197.262 64.4388 196.248 65.3437 195.053 65.9262C193.869 66.5088 192.689 66.8057 191.547 66.8057C189.651 66.8057 188.067 66.1553 186.846 64.8742C185.632 63.5876 185.018 61.8315 185.018 59.654V39.975H179.665V59.9792C179.665 62.6515 180.11 64.9025 180.993 66.6728C181.879 68.4402 183.119 69.7863 184.678 70.6714C186.228 71.5395 188.022 71.9807 190.009 71.9807C192.41 71.9807 194.432 71.4123 196.016 70.2924C197.446 69.2688 198.548 68.0273 199.297 66.5992V71.5763H204.651V39.975H199.297V58.6049V58.602Z" fill="white"/>
<path d="M171.679 51.6427C170.447 50.7718 169.136 50.0733 167.782 49.5671C166.462 49.0722 165.247 48.6763 164.165 48.3907L159.924 47.2539C159.164 47.0559 158.318 46.7929 157.415 46.4734C156.518 46.1454 155.646 45.724 154.832 45.2263C154.031 44.7229 153.364 44.0925 152.847 43.3488C152.354 42.605 152.104 41.7001 152.104 40.6566C152.104 39.4039 152.467 38.2699 153.185 37.2886C153.92 36.2961 154.962 35.5043 156.274 34.9359C157.611 34.3618 159.198 34.0705 160.989 34.0705C163.436 34.0705 165.525 34.6248 167.203 35.722C168.852 36.7994 169.806 38.335 170.039 40.2862L170.067 40.535H175.48L175.469 40.2438C175.401 38.1059 174.725 36.1688 173.468 34.4891C172.227 32.815 170.524 31.4802 168.409 30.5216C166.3 29.5516 163.856 29.0624 161.151 29.0624C158.445 29.0624 156.01 29.5601 153.832 30.5414C151.661 31.5141 149.904 32.9026 148.609 34.6729C147.32 36.4375 146.668 38.5329 146.668 40.8998C146.668 43.7588 147.655 46.1058 149.6 47.876C151.516 49.6208 154.148 50.981 157.421 51.9199L162.533 53.3762C163.972 53.775 165.332 54.2472 166.573 54.7788C167.785 55.2992 168.775 55.9807 169.516 56.8093C170.235 57.6124 170.601 58.6785 170.601 59.9765C170.601 61.413 170.172 62.6856 169.323 63.7602C168.466 64.8347 167.282 65.6888 165.809 66.2996C164.324 66.9019 162.618 67.2073 160.745 67.2073C159.135 67.2073 157.608 66.967 156.214 66.4947C154.846 66.014 153.696 65.2787 152.802 64.3088C151.928 63.336 151.42 62.0861 151.292 60.5929L151.269 60.3356H145.512L145.535 60.6382C145.7 62.9429 146.421 64.9988 147.678 66.7436C148.947 68.4884 150.704 69.8655 152.904 70.8383C155.107 71.8054 157.747 72.2975 160.748 72.2975C163.967 72.2975 166.746 71.7517 169.003 70.6743C171.285 69.5912 173.045 68.1094 174.229 66.2685C175.429 64.4247 176.04 62.3349 176.04 60.0528C176.04 58.0705 175.622 56.3709 174.802 54.9994C173.987 53.6364 172.937 52.5081 171.679 51.6399V51.6427Z" fill="white"/>
<path d="M215.836 31.8494C215.836 30.8823 215.464 30.0452 214.734 29.3609C214.019 28.6793 213.15 28.3344 212.145 28.3344C211.14 28.3344 210.266 28.6794 209.537 29.3637C208.818 30.048 208.455 30.8851 208.455 31.8522C208.455 32.8194 208.818 33.6536 209.539 34.3407C210.266 35.0223 211.143 35.3673 212.148 35.3673C213.153 35.3673 213.939 35.0534 214.632 34.4369L214.663 34.4086C214.689 34.386 214.714 34.3634 214.74 34.3379L214.842 34.2389C215.506 33.5716 215.841 32.7684 215.841 31.8494H215.836Z" fill="white"/>
<path d="M214.78 39.9717H209.426V71.5732H214.78V39.9717Z" fill="white"/>
<path fill-rule="evenodd" clip-rule="evenodd" d="M127.131 44.6232C129.942 48.1383 131.622 52.5837 131.622 57.4193C131.622 62.255 129.891 66.8361 127.006 70.371L126.757 70.6764L126.691 70.289C126.635 69.9609 126.569 69.6272 126.493 69.2936C125.048 62.9704 120.341 57.5494 112.594 53.1577C107.363 50.1998 104.368 46.6423 103.581 42.5957C103.073 39.9799 103.451 37.3528 104.18 35.1018C104.91 32.8537 105.994 30.9675 106.917 29.8335L109.932 26.1629C110.46 25.5182 111.45 25.5182 111.978 26.1629L127.134 44.6232H127.131ZM131.898 40.9555L111.697 16.353C111.311 15.8836 110.59 15.8836 110.204 16.353L90.0067 40.9555L89.9414 41.0375C86.2255 45.6328 84 51.4723 84 57.8294C84 72.6333 96.0674 84.6347 110.951 84.6347C125.834 84.6347 137.901 72.6333 137.901 57.8294C137.901 51.4723 135.676 45.6328 131.96 41.0403L131.895 40.9583L131.898 40.9555ZM94.841 44.544L96.6465 42.3412L96.7004 42.7484C96.743 43.0708 96.7969 43.3931 96.8594 43.7183C98.0289 49.8293 102.205 54.9223 109.185 58.8672C115.254 62.3087 118.788 66.2649 119.805 70.6029C120.23 72.4127 120.304 74.1942 120.12 75.7524L120.108 75.8485L120.02 75.891C117.281 77.2229 114.201 77.9723 110.948 77.9723C99.5334 77.9723 90.2792 68.7704 90.2792 57.4165C90.2792 52.5413 91.9853 48.0647 94.8354 44.5384L94.841 44.544Z" fill="white"/>
</g>
</svg>
