<svg width="71" height="66" viewBox="0 0 71 66" fill="none" xmlns="http://www.w3.org/2000/svg">
<rect x="0.664062" y="0.5" width="69" height="65" rx="6.5" fill="white"/>
<rect x="0.664062" y="0.5" width="69" height="65" rx="6.5" stroke="#1877F2"/>
<path d="M44.5686 45.1348C41.835 47.1209 38.5429 48.1905 35.164 48.1905C31.7851 48.1905 28.493 47.1209 25.7594 45.1348M42.1779 17.8097C45.2149 19.2909 47.7049 21.6955 49.2912 24.6789C50.8775 27.6623 51.4786 31.0713 51.0083 34.4173M19.3198 34.4171C18.8495 31.0711 19.4506 27.6621 21.0369 24.6788C22.6232 21.6954 25.1133 19.2908 28.1502 17.8096M43.964 32.1905C43.964 37.0506 40.0241 40.9905 35.164 40.9905C30.3039 40.9905 26.364 37.0506 26.364 32.1905C26.364 27.3304 30.3039 23.3905 35.164 23.3905C40.0241 23.3905 43.964 27.3304 43.964 32.1905Z" stroke="#1877F2" stroke-width="2" stroke-linecap="round" stroke-linejoin="round"/>
</svg>
