<svg width="71" height="66" viewBox="0 0 71 66" fill="none" xmlns="http://www.w3.org/2000/svg">
<rect x="1.04614" y="0.5" width="69" height="65" rx="6.5" fill="white"/>
<rect x="1.04614" y="0.5" width="69" height="65" rx="6.5" stroke="#1877F2"/>
<path d="M35.5461 38.3333C29.9104 38.3333 24.8986 41.0545 21.7079 45.2773C21.0211 46.1861 20.6778 46.6406 20.689 47.2547C20.6977 47.7292 20.9956 48.3278 21.369 48.6208C21.8522 49 22.5219 49 23.8612 49H47.231C48.5703 49 49.24 49 49.7232 48.6208C50.0966 48.3278 50.3945 47.7292 50.4032 47.2547C50.4144 46.6406 50.0711 46.1861 49.3843 45.2773C46.1936 41.0545 41.1818 38.3333 35.5461 38.3333Z" stroke="#1877F2" stroke-width="2" stroke-linecap="round" stroke-linejoin="round"/>
<path d="M35.5461 33C39.9644 33 43.5461 29.4183 43.5461 25C43.5461 20.5817 39.9644 17 35.5461 17C31.1278 17 27.5461 20.5817 27.5461 25C27.5461 29.4183 31.1278 33 35.5461 33Z" stroke="#1877F2" stroke-width="2" stroke-linecap="round" stroke-linejoin="round"/>
</svg>
