<svg width="71" height="66" viewBox="0 0 71 66" fill="none" xmlns="http://www.w3.org/2000/svg">
<rect x="0.937256" y="0.5" width="69" height="65" rx="6.5" fill="white"/>
<rect x="0.937256" y="0.5" width="69" height="65" rx="6.5" stroke="#1877F2"/>
<path d="M44.3261 38.3333L34.6651 28.6723C34.3131 28.3203 34.1371 28.1443 33.9342 28.0784C33.7556 28.0204 33.5633 28.0204 33.3848 28.0784C33.1818 28.1443 33.0058 28.3203 32.6538 28.6723L29.3318 31.9943C28.9798 32.3464 28.8038 32.5224 28.6008 32.5883C28.4223 32.6463 28.23 32.6463 28.0515 32.5883C27.8485 32.5224 27.6725 32.3464 27.3205 31.9943L19.4373 24.1111M44.3261 38.3333H37.215M44.3261 38.3333V31.2222M27.9706 49H42.9039C45.8909 49 47.3843 49 48.5252 48.4187C49.5287 47.9074 50.3446 47.0915 50.856 46.0879C51.4373 44.9471 51.4373 43.4536 51.4373 40.4667V25.5333C51.4373 22.5464 51.4373 21.0529 50.856 19.9121C50.3446 18.9085 49.5287 18.0926 48.5252 17.5813C47.3843 17 45.8909 17 42.9039 17H27.9706C24.9836 17 23.4902 17 22.3493 17.5813C21.3458 18.0926 20.5299 18.9085 20.0186 19.9121C19.4373 21.0529 19.4373 22.5464 19.4373 25.5333V40.4667C19.4373 43.4536 19.4373 44.9471 20.0186 46.0879C20.5299 47.0915 21.3458 47.9074 22.3493 48.4187C23.4902 49 24.9836 49 27.9706 49Z" stroke="#1877F2" stroke-width="2" stroke-linecap="round" stroke-linejoin="round"/>
</svg>
